<?xml version="1.0" encoding="UTF-8"?>
<svg width="60px" height="60px" viewBox="0 0 60 60" version="1.1" xmlns="http://www.w3.org/2000/svg" xmlns:xlink="http://www.w3.org/1999/xlink">
    <!-- Generator: Sketch 55.2 (78181) - https://sketchapp.com -->
    <title>candado</title>
    <desc>Created with Sketch.</desc>
    <g id="Page-1" stroke="none" stroke-width="1" fill="none" fill-rule="evenodd">
        <g id="Artboard">
            <g id="candado" transform="translate(0.000000, 0.000000)">
                <path d="M22.8572612,1.0658141e-14 C12.1013036,1.0658141e-14 3.33333333,8.69156256 3.33333333,19.3540494 L3.33333333,30.1453349 C3.33333333,31.130797 4.11420998,31.9047619 5.10820359,31.9047619 L12.207803,31.9047619 C13.2019149,31.9047619 13.9826732,31.1306797 13.9826732,30.1453349 L13.9826732,19.3540494 C13.9826732,14.4979416 17.958411,10.5567969 22.8571429,10.5567969 C27.7558747,10.5567969 31.7316125,14.4979416 31.7316125,19.3540494 L31.7316125,22.8729035 C31.7316125,23.8583656 32.5124891,24.6323305 33.5064827,24.6323305 L40.6060821,24.6323305 C41.6001941,24.6323305 42.3809524,23.8582483 42.3809524,22.8729035 L42.3809524,19.3540494 C42.3809524,8.69156256 33.6132187,1.0658141e-14 22.8572612,1.0658141e-14" id="Fill-1" fill="#C8C6CD"></path>
                <path d="M40.4394207,28.0952381 L5.27474782,28.0952381 C2.3559243,28.0952381 3.55271368e-14,30.4703666 3.55271368e-14,33.4127181 L3.55271368e-14,54.68252 C3.55271368e-14,57.6249897 2.3559243,60 5.27474782,60 L40.4395379,60 C43.3583614,60 45.7142857,57.6249897 45.7142857,54.68252 L45.7142857,33.4127181 C45.7142857,30.4703666 43.3582442,28.0952381 40.4394207,28.0952381" id="Fill-3" fill="#FEA832"></path>
                <path d="M42.3809524,19.4558581 L42.3809524,22.9932225 C42.3809524,23.9838685 41.6000757,24.7619048 40.6060821,24.7619048 L33.5064827,24.7619048 C32.5123708,24.7619048 31.7316125,23.9837506 31.7316125,22.9932225 L31.7316125,19.4558581 C31.7316125,14.5742056 27.7558747,10.6123291 22.8571429,10.6123291 L22.8571429,3.19744231e-14 C33.6129821,3.19744231e-14 42.3809524,8.73728306 42.3809524,19.4558581" id="Fill-5" fill="#AEADB3"></path>
                <path d="M50.4921953,18.0445519 L57.4716839,14.4950757 C59.5422526,13.4461356 61.0845641,16.6265599 59.0324918,17.6702938 L52.0530033,21.21977 C49.9803406,22.2668169 48.4391925,19.0887591 50.4921953,18.0445519" id="Fill-7" fill="#159CE4"></path>
                <path d="M57.4723251,38.8359437 L50.4926138,35.2877497 C48.4388474,34.2437179 49.9803937,31.0662042 52.0534716,32.1137842 L59.0331829,35.6618601 C61.0719422,36.6984404 59.5664595,39.8933408 57.4723251,38.8359437" id="Fill-9" fill="#159CE4"></path>
                <path d="M58.2648559,28.0952381 L51.2589536,28.0952381 C48.9501598,28.0952381 48.9407014,24.7619048 51.2589536,24.7619048 L58.2648559,24.7619048 C60.5736497,24.7617936 60.5831082,28.0952381 58.2648559,28.0952381" id="Fill-11" fill="#159CE4"></path>
                <path d="M45.7142857,33.4127181 L45.7142857,54.68252 C45.7142857,57.6249897 43.3583554,60 40.4395244,60 L22.8571429,60 L22.8571429,28.0952381 L40.4395244,28.0952381 C43.3583554,28.0952381 45.7142857,30.4703666 45.7142857,33.4127181" id="Fill-13" fill="#FE8821"></path>
                <path d="M28.0952381,40.5238213 C28.0952381,42.8144044 26.6287065,44.7523551 24.6031746,45.4922722 L24.6031746,51.0952733 C24.6031746,52.2583022 23.7301005,52.8571429 22.8571429,52.8571429 C21.9841852,52.8571429 21.1111111,52.2581847 21.1111111,51.0952733 L21.1111111,45.4922722 C19.0855793,44.7523551 17.6190476,42.8144044 17.6190476,40.5238213 C17.6190476,37.5989229 19.9586533,35.2380952 22.8572593,35.2380952 C25.7558652,35.2380952 28.0952381,37.5990403 28.0952381,40.5238213" id="Fill-15" fill="#787780"></path>
                <path d="M28.0952381,40.5238213 C28.0952381,42.8144044 26.6287065,44.7523551 24.6031746,45.4922722 L24.6031746,51.0952733 C24.6031746,52.2583022 23.7301005,52.8571429 22.8571429,52.8571429 L22.8571429,35.2380952 C25.7556324,35.2380952 28.0952381,37.5990403 28.0952381,40.5238213" id="Fill-17" fill="#57555C"></path>
            </g>
        </g>
    </g>
</svg>