
<svg width="16px" height="16px" viewBox="0 0 16 16" version="1.1" xmlns="http://www.w3.org/2000/svg" xmlns:xlink="http://www.w3.org/1999/xlink">
    <g id="Page-1" stroke="none" stroke-width="1" fill="none" fill-rule="evenodd">
        <g id="checkbox--check">
            <circle id="Oval" fill="#1F7B9E" cx="8" cy="8" r="8"></circle>
            <path d="M12.9309704,4.57684906 L7.74400395,11.8043217 C7.67831714,11.8926735 7.57749553,11.9516955 7.46445311,11.9625584 C7.44917711,11.9661794 7.43810201,11.9661794 7.4224441,11.9661794 C7.32544149,11.9661794 7.22767508,11.9292454 7.15473217,11.8629815 L4.12091817,9.13747118 C4.04262865,9.07156938 4.00023775,8.97597555 4.00023775,8.87639865 C3.99641875,8.77718384 4.03880965,8.68122792 4.11289826,8.61170514 L5.1100393,7.66626771 C5.18756501,7.59276185 5.29220562,7.54894802 5.40104714,7.55944885 C5.50988865,7.56343193 5.61071026,7.60724577 5.67983417,7.6847347 L7.11959736,9.26999898 L12.3298598,4.11300175 C12.4692533,3.97323199 12.6983933,3.96273115 12.8572637,4.08367182 C13.0123151,4.20135362 13.04745,4.41861231 12.9309704,4.57684906" id="Mask" fill="#FFFFFF"></path>
        </g>
    </g>
</svg>