
<svg width="16px" height="15px" viewBox="0 0 16 15" version="1.1" xmlns="http://www.w3.org/2000/svg" xmlns:xlink="http://www.w3.org/1999/xlink">
	<g stroke="none" stroke-width="1" fill="#ffffff" fill-rule="evenodd">
			<path d="M15.8772808,1.08159199 L6.65600702,14.6331031 C6.53923047,14.7987629 6.35999204,14.909429 6.15902775,14.929797 C6.13187041,14.9365864 6.11218135,14.9365864 6.08434507,14.9365864 C5.91189599,14.9365864 5.73808903,14.8673352 5.60841274,14.7430903 L0.214965627,9.63275846 C0.0757842749,9.50919258 0.000422664845,9.32995416 0.000422664845,9.14324746 C-0.00636666939,8.95721971 0.0689949406,8.77730235 0.200708025,8.64694713 L1.97340319,6.87425196 C2.11122668,6.73642848 2.29725444,6.65427753 2.49075046,6.6739666 C2.68424649,6.68143487 2.86348491,6.76358581 2.98637186,6.90887757 L5.54595087,9.8812481 L14.8086396,0.211878275 C15.0564503,-0.0501900266 15.4638103,-0.0698790959 15.7462466,0.156884668 C16.0218936,0.37753803 16.0843555,0.784898085 15.8772808,1.08159199"></path>
	</g>
</svg>