
<svg width="16px" height="16px" viewBox="0 0 16 16" version="1.1" xmlns="http://www.w3.org/2000/svg" xmlns:xlink="http://www.w3.org/1999/xlink">
    <defs>
        <path d="M15.458788,15.4612468 C14.7425979,16.1774369 13.5753979,16.1821844 12.8544603,15.4612468 L7.99711779,10.6039043 L3.14045349,15.4605686 C2.42494158,16.1760805 1.25841978,16.1815062 0.536803971,15.4598904 C-0.180064365,14.743022 -0.178029734,13.5731092 0.537482182,12.8575973 L5.39414648,8.00093299 L0.542907864,3.14969438 C-0.180064365,2.42672215 -0.173282262,1.26155677 0.542907864,0.545366644 C1.26520188,-0.176927376 2.42426337,-0.177605586 3.1472356,0.545366644 L7.99847421,5.39660526 L12.8544603,0.540619171 C13.5774325,-0.182353058 14.7405633,-0.177605586 15.4574316,0.539262751 C16.1790474,1.26087856 16.1804038,2.42061825 15.4574316,3.14359048 L10.6014455,7.99957657 L15.458788,12.8569191 C16.1797256,13.5778567 16.181082,14.7389528 15.458788,15.4612468 Z" id="path-1"></path>
    </defs>
    <g id="Page-1" stroke="none" stroke-width="1" fill="none" fill-rule="evenodd">
        <mask id="mask-2" fill="white">
            <use xlink:href="#path-1"></use>
        </mask>
        <use id="close" fill="#2a495d" xlink:href="#path-1"></use>
    </g>
</svg>