<svg xmlns="http://www.w3.org/2000/svg" width="17" height="9" viewBox="0 0 17 9">
  <path fill="#FFF" fill-rule="evenodd" d="M173.322388,593.10933 C176.313203,593.10933 179.180165,594.586071 181.187869,597.161479 C181.36624,597.390812 181.36624,597.710812 181.187869,597.940738 C179.181351,600.513182 176.314388,601.98933 173.322388,601.98933 C170.331573,601.98933 167.463425,600.513182 165.456314,597.940738 C165.276758,597.710812 165.276758,597.390812 165.456314,597.160886 C167.46461,594.586071 170.331573,593.10933 173.322388,593.10933 Z M173.322388,594.376293 C170.893943,594.376293 168.512906,595.531849 166.774832,597.550219 C168.511721,599.567404 170.892758,600.722367 173.322388,600.722367 C175.752017,600.722367 178.132462,599.567404 179.869943,597.550219 C178.132462,595.531849 175.750832,594.376293 173.322388,594.376293 Z M173.322388,595.147019 C174.647425,595.147019 175.725351,596.224353 175.725351,597.548797 C175.725351,598.873834 174.647425,599.95176 173.322388,599.95176 C171.998536,599.95176 170.919425,598.873834 170.919425,597.548797 C170.919425,596.224353 171.998536,595.147019 173.322388,595.147019 Z M173.322388,596.177538 C172.565647,596.177538 171.951128,596.792649 171.951128,597.548797 C171.951128,598.305538 172.565647,598.920649 173.322388,598.920649 C174.077943,598.920649 174.693647,598.305538 174.693647,597.548797 C174.693647,596.792649 174.077943,596.177538 173.322388,596.177538 Z" transform="translate(-164.774 -593.038)"/>
</svg>
