<?xml version="1.0" encoding="UTF-8"?>
<svg width="9px" height="16px" viewBox="0 0 9 16" version="1.1" xmlns="http://www.w3.org/2000/svg" xmlns:xlink="http://www.w3.org/1999/xlink">
    <!-- Generator: Sketch 55.2 (78181) - https://sketchapp.com -->
    <title>dropdown-icon</title>
    <desc>Created with Sketch.</desc>
    <g id="Page-1" stroke="none" stroke-width="1" fill="none" fill-rule="evenodd">
        <g id="Artboard" transform="translate(-520.000000, -1122.000000)" fill="#2A495D">
            <g id="dropdown-icon" transform="translate(520.068073, 1122.616136)">
                <path d="M8.44102371,9.95929485 C8.4446772,9.96287378 8.4482937,9.96649029 8.45187264,9.97014378 C8.73947413,10.263737 8.7346169,10.7348884 8.44102371,11.0224899 L4.33221799,15.0474424 L0.223412265,11.0224899 C0.21975877,11.0189109 0.216142269,11.0152944 0.212563336,11.0116409 C-0.0750381617,10.7180477 -0.0701809309,10.2468963 0.223412265,9.95929485 C0.524915268,9.66394497 1.00725518,9.66394394 1.30875944,9.95929254 L4.33221799,12.9210226 L7.35567653,9.95929254 C7.6571808,9.66394394 8.1395207,9.66394497 8.44102371,9.95929485 Z" id="Mask"></path>
                <path d="M8.44102371,5.08814755 C8.1395207,5.38349744 7.6571808,5.38349846 7.35567653,5.08814987 L4.33221799,2.1264198 L1.30875944,5.08814987 C1.00725518,5.38349846 0.524915268,5.38349744 0.223412265,5.08814755 C-0.0701809309,4.80054606 -0.0750381617,4.32939467 0.212563336,4.03580147 C0.216142269,4.03214798 0.21975877,4.02853148 0.223412265,4.02495254 L4.33221799,1.13686838e-13 L8.44102371,4.02495254 C8.7346169,4.31255404 8.73947413,4.78370543 8.45187264,5.07729863 C8.4482937,5.08095212 8.4446772,5.08456862 8.44102371,5.08814755 Z" id="Mask-Copy"></path>
            </g>
        </g>
    </g>
</svg>