<svg xmlns="http://www.w3.org/2000/svg" width="138" height="36" viewBox="0 0 138 36">
  <g id="Page-1" fill="none" fill-rule="evenodd" stroke="none" stroke-width="1">
    <g id="Artboard" fill="#FFF" transform="translate(-105 -933)">
      <g id="prismas-logo" transform="translate(105 933)">
        <path id="Mask" d="M118.231573 34.5224024L115.941631 34.5142622 115.941631 32.6291613 115.941631 29.7059695C115.941631 28.8075476 114.340506 29.1125912 114.340506 29.1125912L114.340506 35.0558003C114.340506 35.6920219 114.867126 36.0951764 116.468251 35.9195193 118.400858 35.7083023 118.311212 35.0558003 118.231573 34.5224024L118.231573 34.5224024zM82.6682578 35.4653813C82.6682578 35.4653813 82.7850064 34.2160735 83.8795253 34.4054405 85.0941285 34.616229 86.5318051 34.7995979 86.4863565 33.9804359 86.4384061 33.1188591 82.9701365 33.185266 82.9484546 30.8978674 82.9209353 27.9121246 87.9503015 29.3803612 87.9503015 29.3803612 87.9503015 29.3803612 87.9828243 30.6343817 86.9191605 30.5611199 86.1048385 30.5058521 84.5871057 30.247936 84.5487454 30.8704478 84.4995442 31.6574774 88.182548 31.7688698 88.0862303 33.941877 87.9323722 37.3877558 82.6682578 35.4653813 82.6682578 35.4653813L82.6682578 35.4653813zM99.050182 29.1125912L99.050182 33.2461034 96.9145151 29.7076833C96.7001979 29.3516562 96.348701 29.1849962 96.0022076 29.1125912 95.8437629 29.0753176 95.6723926 29.0624646 95.5147818 29.0628511 95.1945569 29.0611793 94.9548052 29.1125912 94.9548052 29.1125912L94.9548052 35.3030056C94.9548052 36.2031413 96.555096 35.8989545 96.555096 35.8989545L96.555096 31.7650139 98.6903459 35.3030056C98.9042461 35.6590326 99.25616 35.8261211 99.6026534 35.8989545 99.7602641 35.9362281 99.9316345 35.9490811 100.090079 35.9477958 100.409887 35.9499379 100.650056 35.8989545 100.650056 35.8989545L100.650056 29.7076833C100.650056 28.8084044 99.050182 29.1125912 99.050182 29.1125912L99.050182 29.1125912zM129.183016 29.1125912L129.183016 33.2461034 127.049017 29.7076833C126.834699 29.3516562 126.482785 29.1849962 126.136292 29.1125912 125.978264 29.0753176 125.807311 29.0624646 125.649283 29.0628511 125.328641 29.0611793 125.089307 29.1125912 125.089307 29.1125912L125.089307 35.3030056C125.089307 36.2031413 126.689597 35.8989545 126.689597 35.8989545L126.689597 31.7650139 128.82443 35.3030056C129.039165 35.6590326 129.390244 35.8261211 129.737155 35.8989545 129.894349 35.9362281 130.066136 35.9490811 130.224164 35.9477958 130.544389 35.9499379 130.78414 35.8989545 130.78414 35.8989545L130.78414 29.7076833C130.78414 28.8084044 129.183016 29.1125912 129.183016 29.1125912L129.183016 29.1125912zM92.234144 29.4938957C91.9197565 28.6858729 90.5821502 29.1125912 90.5821502 29.1125912L88.1537777 35.3167154C87.8398072 36.1911452 89.6369029 35.8989545 89.6369029 35.8989545L90.1297491 34.5451093 92.4726449 34.5451093 92.7340785 35.3051477C93.0868263 36.2536962 94.657096 35.8989545 94.657096 35.8989545L92.234144 29.4938957zM90.666793 33.07216L91.3364301 31.2341866 91.9677069 33.07216 90.666793 33.07216zM137.670644 35.8989545C137.670644 35.8989545 136.099541 36.2536962 135.745959 35.3051477L135.486193 34.5451093 133.142464 34.5451093 132.649617 35.8989545C132.649617 35.8989545 130.853356 36.1911452 131.167326 35.3167154L133.595282 29.1125912C133.595282 29.1125912 134.932054 28.6858729 135.246858 29.4938957L137.670644 35.8989545zM134.979587 33.07216L134.348728 31.2341866 133.679507 33.07216 134.979587 33.07216zM122.447868 29.4938957C122.13348 28.6858729 120.795874 29.1125912 120.795874 29.1125912L118.367501 35.3167154C118.054365 36.1911452 119.850627 35.8989545 119.850627 35.8989545L120.343473 34.5451093 122.686786 34.5451093 122.947802 35.3051477C123.30055 36.2536962 124.871237 35.8989545 124.871237 35.8989545L122.447868 29.4938957zM120.880517 33.07216L121.550154 31.2341866 122.181431 33.07216 120.880517 33.07216zM106.262748 29.0903127L101.957641 29.0903127C100.957772 29.0903127 101.217538 30.5709738 101.217538 30.5709738L101.217955 30.5709738 102.938747 30.5709738 102.938747 35.3030056C102.938747 36.2031413 104.544458 35.8989545 104.544458 35.8989545L104.544458 30.5709738 105.523062 30.5709738C106.582973 30.5709738 106.262748 29.0903127 106.262748 29.0903127L106.262748 29.0903127zM106.931135 29.1125912L106.931135 35.3030056C106.931135 36.2031413 108.532259 35.8989545 108.532259 35.8989545L108.532259 29.7076833C108.532259 28.8084044 106.931135 29.1125912 106.931135 29.1125912L106.931135 29.1125912zM113.920211 34.5194034L111.217479 34.5194034 111.217479 29.7068264C111.217479 28.8084044 109.617188 29.1125912 109.617188 29.1125912L109.617188 35.0558003C109.617188 35.8269779 110.376888 36.1148843 112.15814 35.9195193 114.089079 35.7074454 114.000267 35.0536581 113.920211 34.5194034L113.920211 34.5194034zM.335332663 6.5862655C.127721153 6.70677688-6.25277607e-13 6.92933943-6.25277607e-13 7.1702322L-6.25277607e-13 20.1628411C-6.25277607e-13 20.4036039.127721153 20.6264264.335332663 20.7468078.33572048 20.7469378.336108297 20.7470678.336366842 20.7470678L11.5214046 27.2431123C11.6250811 27.303433 11.7407799 27.3333333 11.8567373 27.3333333 11.9725654 27.3333333 12.0881349 27.303433 12.1919407 27.2431123L23.3773662 20.7470678C23.3777541 20.7470678 23.3780126 20.7469378 23.3782712 20.7468078 23.5858827 20.6264264 23.7136038 20.4036039 23.7136038 20.1628411L23.7136038 7.1703622C23.7136038 6.92933943 23.5858827 6.70677688 23.3782712 6.5862655L12.1919407.0904810372C12.0881349.0301603457 11.9724361 0 11.8567373 0 11.7409092 0 11.6252104.0301603457 11.5214046.0904810372L.335332663 6.5862655zM12.4808441 1.8778626L21.6334631 7.19827855 17.5065118 9.59754181 12.4808441 12.519084 12.4808441 1.8778626zM6.25937932 9.62792045L2.08014069 7.19827855 11.2327597 1.8778626 11.2327597 12.519084 6.25937932 9.62792045zM17.2317668 16.0657708L13.1048863 13.6666667 18.0248769 10.806436 22.2575053 8.34605598 22.2575053 18.9872774 17.2317668 16.0657708zM1.45609848 8.34605598L5.64995802 10.7840066 10.6087175 13.6667316 6.42956013 16.0962437 1.45609848 18.9872774 1.45609848 8.34605598zM12.4808441 14.8142494L16.7133436 17.2746594 21.6334631 20.134925 12.4808441 25.4554707 12.4808441 14.8142494zM2.08014069 20.134925L7.03876042 17.2522 11.2327597 14.8142494 11.2327597 25.4554707 2.08014069 20.134925zM131.75877 7.63967781C134.283563 7.63967781 136.468242 8.76505622 137.659885 10.2319549L137.659885 10.5416199 135.730499 12.2334677 135.418107 12.2334677C134.425485 11.302828 133.233842 10.8521072 132.014063 10.8521072 130.82242 10.8521072 130.226598 11.302828 130.226598 11.9517672 130.226598 12.599884 130.850969 12.8819957 132.439413 13.4741836 134.567406 14.2637674 138 15.1096913 138 18.2676155 138 21.0311589 135.446657 22.6666667 131.900691 22.6666667 129.034955 22.6666667 126.680632 21.5949711 125.318932 19.9594633L125.318932 19.6493872 127.304176 17.8728235 127.616569 17.8728235C128.467683 18.8318389 130.027991 19.705316 131.616434 19.705316 132.836627 19.705316 133.60292 19.1702907 133.60292 18.3807069 133.60292 17.4216915 132.553198 17.0832397 131.162948 16.6041433 128.751526 15.8145594 125.91434 14.9406711 125.91434 12.1207875 125.91434 9.55464005 128.24094 7.89116785 131.75877 7.89116785L131.75877 7.63967781zM113.040044 18.0138794C113.040044 16.8578793 114.032666 16.0682955 115.791994 16.0682955 116.841716 16.0682955 117.778066 16.349996 118.317202 16.5478032L118.317202 17.5064073C118.317202 18.8318389 117.040323 19.9031232 115.451466 19.9031232 114.203551 19.9031232 113.040044 19.2266308 113.040044 18.0138794zM123.905925 18.8598033L123.650632 18.7191587C123.53726 18.8034632 123.395339 18.8598033 123.224868 18.8598033 122.770968 18.8598033 122.57236 18.4650114 122.57236 17.8164834L122.57236 13.3610921C122.57236 9.35765534 118.997845 7.89116785 115.707172 7.89116785 113.124865 7.89116785 111.082522 8.76505622 109.5789 10.1752036L109.5789 10.4852798 111.536422 12.3465592 111.848401 12.3465592C112.614693 11.6137267 113.777787 10.9927519 115.224723 10.9927519 116.955501 10.9927519 118.317202 11.8954271 118.317202 13.4174322L118.317202 14.038407C117.409401 13.7275084 116.387816 13.5305237 115.111351 13.5305237 111.621657 13.5305237 108.727372 14.9690467 108.727372 18.0418438 108.727372 20.9748188 111.3945 22.6666667 114.48698 22.6666667 116.359266 22.6666667 117.976673 22.0461031 119.167902 21.0591233 119.763724 22.1308189 120.813859 22.6666667 122.090324 22.6666667 122.912889 22.6666667 123.678768 22.440895 124.274589 22.0740675L124.445061 21.7644026 123.905925 18.8598033zM95.9813426 9.86512745C94.931621 8.59603592 93.3713134 7.89116785 91.4419275 7.89116785 89.6544629 7.89116785 88.1227051 8.5117314 86.9596119 9.47033553 86.3637903 8.42660439 85.2855189 7.89116785 83.9805043 7.89116785 83.1579396 7.89116785 82.4201967 8.11652824 81.7962391 8.48294449L81.6261818 8.79343188 82.1649037 11.6976199 82.4483327 11.839087C82.5335683 11.7543713 82.6754896 11.6976199 82.8740968 11.6976199 83.3284107 11.6976199 83.4984681 12.0924119 83.4984681 12.7413511L83.4984681 22.3282148 87.8959619 22.3282148 87.8959619 14.2917318C87.8959619 12.6566353 88.91672 11.585351 90.4770276 11.585351 92.0662988 11.585351 92.9455493 12.6566353 92.9455493 14.2917318L92.9455493 22.3282148 97.3430431 22.3282148 97.3430431 14.2917318C97.3430431 12.6566353 98.3642149 11.585351 99.9245225 11.585351 101.485244 11.585351 102.393044 12.6566353 102.393044 14.2917318L102.393044 22.3282148 106.790538 22.3282148 106.790538 13.9820669C106.790538 10.288295 104.407252 7.89116785 100.889422 7.89116785 98.8752146 7.89116785 97.1725719 8.68034045 95.9813426 9.86512745zM80.386542 10.2319549L80.386542 10.5416199 78.4575698 12.2334677 78.1447635 12.2334677C77.1525552 11.302828 75.9609122 10.8521072 74.7407194 10.8521072 73.5490763 10.8521072 72.9532548 11.302828 72.9532548 11.9517672 72.9532548 12.599884 73.5776261 12.8819957 75.1664835 13.4741836 77.2940628 14.2637674 80.7270705 15.1096913 80.7270705 18.2676155 80.7270705 21.0311589 78.1733133 22.6666667 74.6273478 22.6666667 71.7620255 22.6666667 69.4072893 21.5949711 68.0455888 19.9594633L68.0455888 19.6493872 70.0312468 17.8728235 70.3432256 17.8728235C71.19434 18.8318389 72.7546476 19.705316 74.3439188 19.705316 75.5632841 19.705316 76.3295767 19.1702907 76.3295767 18.3807069 76.3295767 17.4216915 75.2798551 17.0832397 73.8896049 16.6041433 71.4785966 15.8145594 68.6414104 14.9406711 68.6414104 12.1207875 68.6414104 9.55464005 70.9671831 7.89116785 74.4854264 7.89116785 77.0102201 7.89116785 79.194899 8.76505622 80.386542 10.2319549zM61.625612 22.3278036L65.994556 22.3278036 65.994556 8.22920843 61.625612 8.22920843 61.625612 22.3278036zM60.1050258 8.48294449C59.2824611 8.08815257 58.4598964 7.89116785 57.4949966 7.89116785 55.906553 7.89116785 54.459617 8.53969583 53.4098953 9.63935582 52.8993094 8.48294449 51.8495877 7.89116785 50.6575309 7.89116785 49.7215946 7.89116785 49.0124015 8.11652824 48.3880302 8.48294449L48.2179728 8.79343188 48.7566948 11.6976199 49.0405375 11.839087C49.1257731 11.7543713 49.2676945 11.6976199 49.4381656 11.6976199 49.9202018 11.6976199 50.0902592 12.0924119 50.0902592 12.7413511L50.0902592 22.3282148 54.459617 22.3282148 54.459617 14.6301837C54.459617 12.6566353 55.679396 11.585351 57.1548818 11.585351 57.8640749 11.585351 58.3750746 11.6976199 59.083854 12.0360718L59.3391469 11.8954271 60.2469472 8.79343188 60.1050258 8.48294449zM36.3735376 12.599884L36.3735376 7.60946737 40.0332885 7.60946737C41.5654601 7.60946737 42.6151818 8.59603592 42.6151818 10.1188635 42.6151818 11.6412798 41.5654601 12.599884 40.0332885 12.599884L36.3735376 12.599884zM31.947494 4L31.947494 22.3282148 36.3735376 22.3282148 36.3735376 16.0119554 39.9766027 16.0119554C44.6860753 16.0119554 47.1260472 13.6719908 47.1260472 10.0057721 47.1260472 6.34037585 44.6575255 4 39.9766027 4L31.947494 4z"/>
      </g>
    </g>
  </g>
</svg>
