<?xml version="1.0" encoding="UTF-8"?>
<svg width="9px" height="9px" viewBox="0 0 9 9" version="1.1" xmlns="http://www.w3.org/2000/svg" xmlns:xlink="http://www.w3.org/1999/xlink">
    <!-- Generator: Sketch 55.2 (78181) - https://sketchapp.com -->
    <title>icon-table-plus--white</title>
    <desc>Created with Sketch.</desc>
    <g id="Page-1" stroke="none" stroke-width="1" fill="none" fill-rule="evenodd">
        <g id="Artboard" transform="translate(-821.000000, -786.000000)" fill="#FFFFFF">
            <path d="M829.997136,790.5 C829.997136,790.932 829.646545,791.285455 829.211682,791.285455 L826.281773,791.285455 L826.281773,794.214955 C826.281773,794.646545 825.931591,795 825.496318,795 C825.063909,795 824.711682,794.646545 824.711682,794.214955 L824.711682,791.285455 L821.785455,791.285455 C821.349364,791.285455 821,790.932 821,790.5 C821,790.064318 821.349364,789.714545 821.785455,789.714545 L824.711682,789.714545 L824.711682,786.785455 C824.711682,786.349364 825.063909,786 825.496318,786 C825.931591,786 826.281773,786.349364 826.281773,786.785455 L826.281773,789.714545 L829.211682,789.714545 C829.646545,789.714545 829.997136,790.064318 829.997136,790.5" id="icon-table-plus--white"></path>
        </g>
    </g>
</svg>