<svg xmlns="http://www.w3.org/2000/svg" width="28" height="32" viewBox="0 0 28 32">
  <path fill="#FFF" fill-rule="evenodd" d="M346.66806,113.602425 L346.587671,113.738596 C345.88532,114.640048 338.715141,123.461204 333.842408,129.448641 C333.801508,129.500386 333.752146,129.543961 333.694322,129.57528 L327.658058,132.948235 C327.42112,133.106194 327.146103,133.220577 326.831597,133.220577 C326.002316,133.220577 325.333814,132.572403 325.333814,131.774442 C325.333814,131.703633 325.366252,131.642356 325.377534,131.572909 C325.377534,131.570185 325.374714,131.567462 325.374714,131.564738 L326.187071,125.87143 C326.198353,125.788366 326.230791,125.708025 326.282974,125.639939 C327.507151,124.019505 333.754967,116.102524 339.401977,108.975336 C339.569808,108.764271 339.875852,108.713887 340.104328,108.855505 L341.833407,109.925809 C341.957517,110.002065 342.043548,110.128704 342.067524,110.26896 C342.09291,110.409216 342.054831,110.554919 341.963159,110.667941 L329.200972,126.495093 C328.808897,126.977138 328.900569,127.677057 329.401241,128.054251 C329.883578,128.419189 330.6367,128.329316 331.013262,127.859526 L343.948921,111.819947 C344.119572,111.610244 344.425616,111.561222 344.656912,111.709649 C345.466449,112.229822 346.150465,112.676463 346.521385,112.94472 C346.734346,113.095869 346.797812,113.377743 346.66806,113.602425 M348.860629,115.069239 C348.715418,115.303999 346.130504,118.495212 335.727861,131.278494 C335.612012,131.423355 335.465634,131.545476 335.299648,131.636038 L324.255447,137.80913 C323.774662,138.081126 323.135035,138.061205 322.669106,137.757146 C322.187729,137.444929 321.935215,136.905883 322.014337,136.355134 L323.612523,125.142456 C323.729074,124.558896 324.206399,123.942448 337.493026,107.15891 C338.147539,106.333104 338.937386,106 339.709432,106 C340.423423,106 341.008079,106.269703 341.508024,106.682391 C344.804391,108.709201 347.756361,110.57957 348.485301,111.176096 C349.528747,112.027571 349.902222,113.34973 348.860629,115.069239 Z" transform="translate(-322 -106)"/>
</svg>
