<svg xmlns="http://www.w3.org/2000/svg" width="32" height="32" viewBox="0 0 32 32">
  <path fill="#FFF" fill-rule="evenodd" d="M121.917576,138.922494 C120.485196,140.354874 118.150796,140.364369 116.708921,138.922494 L106.994236,129.207809 L97.280907,138.921137 C95.8498832,140.352161 93.5168396,140.363012 92.0736079,138.919781 C90.6398713,137.486044 90.6439405,135.146218 92.0749644,133.715195 L101.788293,124.001866 L92.0858157,114.299389 C90.6398713,112.853444 90.6534355,110.523114 92.0858157,109.090733 C93.5304038,107.646145 95.8485267,107.644789 97.2944712,109.090733 L106.996948,118.793211 L116.708921,109.081238 C118.154865,107.635294 120.481127,107.644789 121.914863,109.078526 C123.358095,110.521757 123.360808,112.841237 121.914863,114.287181 L112.202891,123.999153 L121.917576,133.713838 C123.359451,135.155713 123.362164,137.477906 121.917576,138.922494 Z" transform="translate(-91 -108)"/>
</svg>
