<svg xmlns="http://www.w3.org/2000/svg" width="14" height="32" viewBox="0 0 14 32">
  <path fill="#FFF" fill-rule="evenodd" d="M565.363524,226.369379 C564.991712,226.369379 564.669931,226.227034 564.398182,225.942345 C564.126433,225.657931 563.990558,225.320552 563.990558,224.931034 L563.990558,220.615724 C563.990558,220.226207 564.126433,219.888828 564.398182,219.604138 C564.669931,219.319724 564.991712,219.177103 565.363524,219.177103 L570.855649,219.177103 C571.227461,219.177103 571.549505,219.319724 571.820991,219.604138 C572.093003,219.889103 572.228878,220.226207 572.228878,220.615724 L572.228878,224.931034 C572.228878,225.320552 572.093003,225.657931 571.821517,225.942345 C571.549505,226.227034 571.227724,226.369379 570.856176,226.369379 L565.363524,226.369379 Z M574.567185,245.496 C574.839461,245.78069 574.974545,246.117793 574.974545,246.50731 L574.974545,249.384276 C574.974545,249.773793 574.838671,250.111172 574.567185,250.396138 C574.295436,250.680276 573.973655,250.822897 573.601843,250.822897 L562.617592,250.822897 C562.245781,250.822897 561.924,250.680276 561.652251,250.396138 C561.380502,250.111172 561.244627,249.773793 561.244627,249.384276 L561.244627,246.50731 C561.244627,246.117793 561.380502,245.78069 561.652251,245.496 C561.924,245.21131 562.245781,245.068966 562.617592,245.068966 L563.990821,245.068966 L563.990821,236.438345 L562.617592,236.438345 C562.245781,236.438345 561.924,236.296 561.652251,236.01131 C561.380502,235.726897 561.244627,235.389517 561.244627,235 L561.244627,232.123034 C561.244627,231.733517 561.380502,231.396414 561.652251,231.111724 C561.924,230.827034 562.245781,230.68469 562.617592,230.68469 L570.855912,230.68469 C571.227461,230.68469 571.549241,230.827034 571.821254,231.111724 C572.09274,231.396414 572.228614,231.733517 572.228614,232.123034 L572.228614,245.068966 L573.601843,245.068966 C573.973655,245.068966 574.295699,245.21131 574.567185,245.496 Z" transform="translate(-561 -219)"/>
</svg>
