<?xml version="1.0" encoding="UTF-8"?>
<svg width="16px" height="14px" viewBox="0 0 16 14" version="1.1" xmlns="http://www.w3.org/2000/svg" xmlns:xlink="http://www.w3.org/1999/xlink">
    <!-- Generator: Sketch 55.2 (78181) - https://sketchapp.com -->
    <title>icon-comment-minus--neutro</title>
    <desc>Created with Sketch.</desc>
    <g id="Page-1" stroke="none" stroke-width="1" fill="none" fill-rule="evenodd">
        <g id="Artboard" transform="translate(-839.000000, -868.000000)" fill="#2A495D">
            <path d="M845.360005,874.013773 C845.309415,873.840054 845.245799,873.671884 845.170286,873.510392 C845.227875,873.528396 845.288892,873.538091 845.351915,873.538091 L848.491979,873.538091 C848.833329,873.538091 849.115031,873.255636 849.115031,872.908773 C849.115031,872.561318 848.833329,872.285364 848.491979,872.285364 L845.351915,872.285364 C845.044127,872.285364 844.784204,872.511283 844.737509,872.811671 C844.283455,872.240111 843.655501,871.812914 842.933648,871.610079 C844.07673,869.746046 846.133031,868.5 848.474852,868.5 C852.054891,868.5 854.968766,871.414955 854.968766,874.997636 C854.968766,876.162318 854.662851,877.290955 854.08291,878.274818 L854.951049,880.795636 C855.014831,880.982364 854.968766,881.189182 854.826439,881.329227 C854.69297,881.468682 854.48627,881.520682 854.300831,881.458045 L851.718266,880.625455 C850.735556,881.195091 849.617606,881.5 848.474852,881.5 C846.134345,881.5 844.079038,880.253082 842.935574,878.389379 C843.787394,878.149499 844.508298,877.597146 844.966738,876.86387 C845.073097,876.949226 845.207216,877.000227 845.351915,877.000227 L850.056991,877.000227 C850.405427,877.000227 850.68713,876.718364 850.68713,876.370909 C850.68713,876.023455 850.405427,875.7475 850.056991,875.7475 L845.420489,875.7475 C845.454448,875.590419 845.477926,875.429435 845.490153,875.265318 L852.133437,875.265318 C852.474787,875.265318 852.756489,874.983455 852.756489,874.6425 C852.756489,874.296227 852.474787,874.013773 852.133437,874.013773 L845.360005,874.013773 Z M841.979167,877.979167 C840.333818,877.979167 839,876.645348 839,875 C839,873.354652 840.333818,872.020833 841.979167,872.020833 C843.624515,872.020833 844.958333,873.354652 844.958333,875 C844.958333,876.645348 843.624515,877.979167 841.979167,877.979167 Z M843.767531,875.378182 C843.976977,875.378182 844.145833,875.208 844.145833,875 C844.145833,874.790227 843.976977,874.621818 843.767531,874.621818 L840.190802,874.621818 C839.980766,874.621818 839.8125,874.790227 839.8125,875 C839.8125,875.208 839.980766,875.378182 840.190802,875.378182 L843.767531,875.378182 Z" id="icon-comment-minus--neutro"></path>
        </g>
    </g>
</svg>