<?xml version="1.0" encoding="UTF-8"?>
<svg width="28px" height="28px" viewBox="0 0 28 28" version="1.1" xmlns="http://www.w3.org/2000/svg" xmlns:xlink="http://www.w3.org/1999/xlink">
    <!-- Generator: Sketch 58 (84663) - https://sketch.com -->
    <title>Group 6</title>
    <desc>Created with Sketch.</desc>
    <defs>
        <path d="M11.8835182,6.88965455 C12.5650636,6.88965455 12.7935182,7.46874545 12.8170636,7.77738182 C12.7012455,9.38038182 12.0451545,10.8522909 10.9563364,11.9735636 C9.69124545,13.2793818 7.99215455,13.9997455 6.16515455,13.9997455 C4.51697273,13.9997455 2.95915455,13.4060182 1.73988182,12.3172 L0.806336364,13.2679273 C0.657427273,13.2679273 0.538427273,13.1463818 0.532063636,12.9917455 L0.154063636,9.70683636 C0.148972727,9.55283636 0.274972727,9.43192727 0.423881818,9.4262 L3.72024545,9.74056364 C3.87679091,9.74056364 3.99515455,9.86083636 3.99515455,10.0116545 L3.06860909,10.9585636 C3.93406364,11.7043818 5.02160909,12.1046545 6.16515455,12.1046545 C7.47160909,12.1046545 8.68960909,11.5898364 9.59451818,10.6556545 C10.3734273,9.85701818 10.8481545,8.80192727 10.9277,7.69147273 C10.9798818,7.40001818 11.2433364,6.90174545 11.8835182,6.88965455 Z M6.67621818,0.000254545455 C8.42112727,0.000254545455 10.0693091,0.663981818 11.3216727,1.87752727 C11.3394909,1.89470909 11.3515818,1.9068 11.3630364,1.92270909 L11.3630364,1.92270909 L12.3188545,0.943345455 C12.4677636,0.938254545 12.5874,1.05916364 12.5931273,1.21316364 L12.5931273,1.21316364 L12.9711273,4.50443636 C12.9774909,4.65334545 12.8508545,4.77998182 12.7013091,4.77998182 L12.7013091,4.77998182 L11.1167636,4.63107273 L11.0085818,4.61770909 L9.40558182,4.46434545 C9.24967273,4.46434545 9.1294,4.34470909 9.1294,4.1958 L9.1294,4.1958 L10.0343091,3.27434545 C10.0292182,3.26225455 10.0120364,3.24570909 10.0005818,3.23298182 C9.10712727,2.36943636 7.92858182,1.88707273 6.67621818,1.88707273 C5.36976364,1.88707273 4.15049091,2.4038 3.24494545,3.3418 C2.37503636,4.23589091 1.90030909,5.41507273 1.90030909,6.66170909 L1.90030909,6.66170909 L1.90030909,6.77243636 L1.87676364,6.79470909 C1.80994545,7.13707273 1.5624,7.63598182 0.966763636,7.63598182 L0.966763636,7.63598182 L0.927309091,7.63598182 C0.657490909,7.62389091 0.434763636,7.52143636 0.268672727,7.34961818 C0.0682181818,7.13261818 0.0173090909,6.84561818 0.0109454545,6.68589091 C0.00649090909,6.65725455 0.00649090909,6.63370909 0.00649090909,6.61016364 L0.00649090909,6.55925455 C0.0338545455,4.85316364 0.698218182,3.24570909 1.88312727,2.02007273 C3.14821818,0.716163636 4.85367273,0.000254545455 6.67621818,0.000254545455 Z M1.32885455,6.63370909 L1.32885455,6.6458 L1.60821818,6.66170909 L1.32885455,6.63370909 Z M0.292218182,6.57643636 L0.577945455,6.59425455 L0.577945455,6.5898 L0.292218182,6.57643636 Z" id="path-1"></path>
    </defs>
    <g id="symbols" stroke="none" stroke-width="1" fill="none" fill-rule="evenodd">
        <g id="Header-/-1-actualizar" transform="translate(-1297.000000, -18.000000)">
            <g id="Group-4" transform="translate(1288.000000, 12.000000)">
                <g id="Group-6" transform="translate(9.000000, 6.000000)">
                    <circle id="Oval" fill="#FF0000" cx="14" cy="14" r="14"></circle>
                    <g id="i-/-reload" transform="translate(7.000000, 7.000000)">
                        <mask id="mask-2" fill="white">
                            <use xlink:href="#path-1"></use>
                        </mask>
                        <use id="Mask" fill="#000000" fill-rule="evenodd" xlink:href="#path-1"></use>
                        <g id="c-/-blanco" mask="url(#mask-2)" fill="#FFFFFF" fill-rule="evenodd">
                            <rect id="Rectangle-17" x="0" y="0" width="14" height="14"></rect>
                        </g>
                    </g>
                </g>
            </g>
        </g>
    </g>
</svg>