<?xml version="1.0" encoding="UTF-8"?>
<svg width="30px" height="29px" viewBox="0 0 30 29" version="1.1" xmlns="http://www.w3.org/2000/svg" xmlns:xlink="http://www.w3.org/1999/xlink">
    <!-- Generator: Sketch 55.2 (78181) - https://sketchapp.com -->
    <title>icon-editar-notas--neutro</title>
    <desc>Created with Sketch.</desc>
    <g id="Page-1" stroke="none" stroke-width="1" fill="none" fill-rule="evenodd">
        <g id="Artboard" transform="translate(-1011.000000, -1620.000000)" fill="#2A495D">
            <path d="M1030.40171,1628.09487 L1017.33358,1628.09487 C1016.93,1628.09487 1016.60496,1627.7662 1016.60496,1627.36503 C1016.60496,1626.96266 1016.93,1626.63399 1017.33358,1626.63399 L1030.40171,1626.63399 C1030.80287,1626.63399 1031.12912,1626.96266 1031.12912,1627.36503 C1031.12912,1627.7662 1030.80287,1628.09487 1030.40171,1628.09487 Z M1030.40171,1631.25381 L1017.33358,1631.25381 C1016.93,1631.25381 1016.60496,1630.92877 1016.60496,1630.52519 C1016.60496,1630.1216 1016.93,1629.79535 1017.33358,1629.79535 L1030.40171,1629.79535 C1030.80287,1629.79535 1031.12912,1630.1216 1031.12912,1630.52519 C1031.12912,1630.92877 1030.80287,1631.25381 1030.40171,1631.25381 Z M1027.9709,1634.41505 L1017.33395,1634.41505 C1016.93036,1634.41505 1016.60411,1634.0876 1016.60411,1633.68522 C1016.60411,1633.28285 1016.93036,1632.95418 1017.33395,1632.95418 L1027.9709,1632.95418 C1028.37207,1632.95418 1028.69832,1633.28285 1028.69832,1633.68522 C1028.69832,1634.0876 1028.37207,1634.41505 1027.9709,1634.41505 Z M1034.75123,1643.37376 C1034.97718,1643.24688 1035.18985,1643.0608 1035.35056,1642.84813 C1035.68164,1642.42763 1035.99218,1642.03613 1036.28339,1641.66276 L1036.28339,1645.23822 C1036.28339,1645.47626 1036.25681,1645.7288 1036.20243,1646.01276 C1035.8206,1647.75276 1034.27031,1648.99976 1032.50977,1648.99976 L1015.76227,1648.99976 C1013.68756,1648.99976 1011.99952,1647.31172 1011.99952,1645.23822 L1011.99952,1623.76251 C1011.99952,1623.00367 1012.2291,1622.27384 1012.65564,1621.65276 C1012.84777,1621.34947 1013.10152,1621.08122 1013.40843,1620.85163 C1013.67548,1620.60393 1013.97998,1620.44926 1014.20473,1620.35622 C1014.70014,1620.12301 1015.23785,1619.99976 1015.76227,1619.99976 L1032.50977,1619.99976 C1034.59052,1619.99976 1036.28339,1621.6878 1036.28339,1623.76251 L1036.28339,1629.09368 C1036.18189,1629.07918 1036.07556,1629.06588 1035.96923,1629.06588 C1035.37956,1629.06588 1034.81043,1629.27976 1034.34039,1629.66401 L1034.34039,1623.76251 C1034.34039,1622.75838 1033.51873,1621.94638 1032.50977,1621.94638 L1015.76227,1621.94638 C1015.5206,1621.94638 1015.25718,1622.00801 1015.01793,1622.12401 L1014.95752,1622.15059 C1014.83668,1622.19772 1014.75452,1622.2533 1014.72068,1622.28834 L1014.59623,1622.39347 C1014.46573,1622.48772 1014.36423,1622.58801 1014.29656,1622.69917 L1014.26273,1622.74993 C1014.0561,1623.04718 1013.94493,1623.39638 1013.94493,1623.76251 L1013.94493,1645.23822 C1013.94493,1646.23872 1014.75935,1647.05313 1015.76227,1647.05313 L1032.50977,1647.05313 C1033.36406,1647.05313 1034.11685,1646.45017 1034.2981,1645.61763 C1034.32348,1645.4823 1034.34039,1645.34938 1034.34039,1645.23822 L1034.34039,1643.61301 L1034.75123,1643.37376 Z M1038.91901,1633.88399 C1038.94438,1633.84049 1038.93351,1633.77766 1038.8888,1633.74383 C1038.74018,1633.63628 1038.46588,1633.4502 1038.07197,1633.18799 C1038.05505,1633.1747 1038.03451,1633.16866 1038.01276,1633.16866 C1038.01034,1633.16866 1038.00793,1633.17349 1038.00551,1633.17349 C1037.9753,1633.1747 1037.94388,1633.18799 1037.92576,1633.21095 L1036.28243,1635.3207 L1035.19493,1636.71995 L1034.34063,1637.81833 L1032.25143,1640.50083 C1032.20672,1640.55641 1032.14751,1640.60112 1032.08468,1640.63737 C1032.07501,1640.64462 1032.06293,1640.65066 1032.05326,1640.65549 C1031.99043,1640.6857 1031.92155,1640.70745 1031.85268,1640.71833 C1031.83697,1640.72074 1031.82488,1640.72074 1031.81038,1640.72316 C1031.75359,1640.72799 1031.6968,1640.72316 1031.64363,1640.71349 C1031.62188,1640.70987 1031.59772,1640.70866 1031.57476,1640.70383 C1031.50105,1640.68328 1031.43338,1640.65428 1031.37418,1640.60716 C1031.24126,1640.50566 1031.15668,1640.35824 1031.13613,1640.19149 C1031.1168,1640.02474 1031.16151,1639.8592 1031.26301,1639.73112 L1034.34063,1635.77866 L1035.93805,1633.72691 L1036.28243,1633.28224 L1036.86605,1632.53791 C1036.88176,1632.51374 1036.89143,1632.48112 1036.88176,1632.45091 C1036.88055,1632.4207 1036.86363,1632.39533 1036.83705,1632.37841 L1036.28243,1632.02437 L1036.07701,1631.89145 C1036.0613,1631.88058 1036.04197,1631.87453 1036.02143,1631.87453 C1036.01901,1631.87453 1036.01659,1631.87816 1036.01176,1631.87816 C1035.98276,1631.88299 1035.95255,1631.89266 1035.93322,1631.91803 C1035.43055,1632.57416 1034.91822,1633.24478 1034.41313,1633.90333 C1034.39018,1633.93595 1034.36359,1633.96737 1034.34063,1634.0012 C1033.9443,1634.51958 1033.55522,1635.02949 1033.18426,1635.52008 C1033.15405,1635.55512 1033.12747,1635.59258 1033.09726,1635.63124 C1033.01388,1635.73878 1032.93413,1635.84753 1032.85197,1635.95145 C1032.78793,1636.03845 1032.71905,1636.12545 1032.65259,1636.21124 C1032.57526,1636.31395 1032.50155,1636.41424 1032.42663,1636.51212 C1032.38193,1636.57012 1032.33963,1636.62691 1032.29493,1636.68491 C1032.17893,1636.83353 1032.06534,1636.98216 1031.95901,1637.12595 C1031.90947,1637.18999 1031.86476,1637.25162 1031.81763,1637.31324 C1031.76326,1637.38453 1031.70888,1637.45462 1031.65693,1637.52591 C1031.58926,1637.61533 1031.5228,1637.70112 1031.45634,1637.78691 C1031.43097,1637.82195 1031.40438,1637.85578 1031.38143,1637.88841 C1031.31013,1637.98387 1031.24005,1638.07449 1031.17359,1638.16149 C1031.15668,1638.18445 1031.14218,1638.20499 1031.12405,1638.22674 C1031.04068,1638.33791 1030.95851,1638.44303 1030.88601,1638.54695 C1030.8268,1638.62308 1030.77243,1638.69558 1030.71805,1638.76445 C1030.69147,1638.80191 1030.66609,1638.83574 1030.63951,1638.86958 C1030.59238,1638.92878 1030.55251,1638.98437 1030.51505,1639.03633 C1030.49088,1639.06774 1030.47034,1639.09553 1030.44618,1639.12574 C1030.40872,1639.17891 1030.37126,1639.22724 1030.33743,1639.26953 C1030.32413,1639.29249 1030.3048,1639.31424 1030.29272,1639.33478 C1030.24801,1639.3952 1030.21055,1639.44716 1030.18034,1639.48703 C1030.16826,1639.50033 1030.16101,1639.51966 1030.15859,1639.53899 L1029.80455,1642.11033 C1029.79972,1642.14778 1029.79488,1642.16349 1029.79247,1642.18041 C1029.79005,1642.25049 1029.80213,1642.31574 1029.82388,1642.37495 C1029.82872,1642.39308 1029.83718,1642.40758 1029.84201,1642.42208 C1029.86618,1642.47403 1029.89397,1642.52358 1029.93022,1642.56708 C1029.93384,1642.56949 1029.93384,1642.57553 1029.93868,1642.57795 C1029.98218,1642.62508 1030.02688,1642.65891 1030.08126,1642.68549 C1030.09455,1642.69153 1030.10663,1642.69637 1030.12355,1642.70603 C1030.17068,1642.72174 1030.22263,1642.73624 1030.27701,1642.73745 C1030.28426,1642.73866 1030.2903,1642.74228 1030.29755,1642.74228 C1030.29997,1642.74228 1030.30238,1642.74108 1030.3048,1642.74108 C1030.33743,1642.73987 1030.36884,1642.73262 1030.4063,1642.72416 C1030.4208,1642.72053 1030.43893,1642.72053 1030.45826,1642.7157 C1030.51022,1642.69637 1030.56218,1642.66978 1030.61655,1642.63474 L1033.27126,1641.10016 C1033.28093,1641.09412 1033.29301,1641.08445 1033.30268,1641.07237 C1033.60718,1640.68328 1033.96001,1640.23016 1034.34063,1639.74924 C1034.48443,1639.56678 1034.63063,1639.37949 1034.77684,1639.1922 C1035.1333,1638.7427 1035.49459,1638.27749 1035.85588,1637.81712 C1035.99968,1637.63224 1036.14105,1637.44978 1036.28243,1637.27216 C1036.5398,1636.94349 1036.78993,1636.62691 1037.02918,1636.32241 C1037.0473,1636.29583 1037.06905,1636.27045 1037.08959,1636.24387 C1037.19351,1636.11216 1037.29743,1635.97803 1037.39651,1635.85358 C1037.43638,1635.80162 1037.47747,1635.75087 1037.51734,1635.70012 C1037.73243,1635.41978 1037.93784,1635.16362 1038.11426,1634.93524 C1038.12151,1634.92437 1038.13118,1634.91349 1038.13843,1634.90383 C1038.33659,1634.65128 1038.50334,1634.44103 1038.62901,1634.27308 C1038.76072,1634.10874 1038.85013,1633.99033 1038.89122,1633.93474 L1038.91901,1633.88399 Z M1039.79747,1632.86778 C1040.03551,1633.06716 1040.52126,1633.63145 1039.95697,1634.59449 C1039.95455,1634.59933 1039.95093,1634.60658 1039.94368,1634.61503 C1039.94126,1634.61624 1039.93884,1634.61745 1039.93884,1634.62228 C1039.93159,1634.62953 1039.92434,1634.64162 1039.91468,1634.6537 C1039.90984,1634.66337 1039.90501,1634.6682 1039.90018,1634.67545 C1039.89413,1634.68391 1039.88447,1634.69478 1039.87722,1634.70566 C1039.86755,1634.72137 1039.84943,1634.7407 1039.83493,1634.76245 C1039.82768,1634.77091 1039.82284,1634.77816 1039.81801,1634.78541 C1039.77813,1634.83978 1039.72376,1634.90745 1039.6573,1634.99083 C1039.65488,1634.99566 1039.65247,1634.99808 1039.65005,1635.00291 C1039.23318,1635.53941 1038.29793,1636.73566 1036.28243,1639.29974 C1035.80393,1639.91237 1035.2638,1640.5987 1034.6548,1641.37687 C1034.64272,1641.38895 1034.63547,1641.40345 1034.6258,1641.41312 C1034.53155,1641.53153 1034.43488,1641.65358 1034.34063,1641.77683 C1034.29351,1641.83724 1034.24638,1641.89645 1034.19926,1641.95808 C1034.15213,1642.02091 1034.08809,1642.07166 1034.01922,1642.11395 L1029.17259,1644.91728 C1029.08438,1644.97166 1028.97443,1644.99824 1028.86326,1644.99824 C1028.73759,1644.99824 1028.61313,1644.96078 1028.51405,1644.89312 C1028.31347,1644.75899 1028.20713,1644.5282 1028.23976,1644.28895 L1028.94059,1639.20187 C1028.94059,1639.19583 1028.94301,1639.18495 1028.94543,1639.1777 C1028.94543,1639.17528 1028.94784,1639.17166 1028.94784,1639.16803 C1028.95026,1639.16078 1028.95026,1639.15837 1028.95268,1639.15233 C1028.95268,1639.14628 1028.95509,1639.14266 1028.95993,1639.13783 C1028.95993,1639.13299 1028.96234,1639.12816 1028.96234,1639.12333 C1028.96718,1639.11849 1028.96718,1639.11245 1028.96959,1639.10762 L1028.97563,1639.0907 C1028.97805,1639.08587 1028.98047,1639.07862 1028.9853,1639.07137 C1028.99013,1639.06653 1028.99255,1639.0617 1028.99497,1639.05324 C1028.9998,1639.04478 1029.00463,1639.03753 1029.00705,1639.02908 C1029.01188,1639.02424 1029.01672,1639.01699 1029.02155,1639.00974 C1029.02397,1639.00008 1029.03001,1638.99162 1029.03484,1638.97953 C1029.03968,1638.97349 1029.04693,1638.96503 1029.04934,1638.95658 C1029.05659,1638.94691 1029.06384,1638.93483 1029.07351,1638.92274 C1029.07593,1638.91428 1029.08197,1638.90583 1029.0868,1638.89616 C1029.09405,1638.88528 1029.10613,1638.87078 1029.11338,1638.85749 C1029.12063,1638.84662 1029.12547,1638.83695 1029.13393,1638.82728 C1029.14359,1638.81037 1029.15568,1638.79466 1029.16534,1638.78016 C1029.17259,1638.76808 1029.17863,1638.75599 1029.19072,1638.74633 C1029.20038,1638.72699 1029.21488,1638.70766 1029.22818,1638.69074 C1029.23543,1638.67503 1029.24751,1638.66295 1029.25476,1638.64845 C1029.26926,1638.63033 1029.28255,1638.60978 1029.29947,1638.58803 C1029.30913,1638.57474 1029.32122,1638.55662 1029.33209,1638.54091 C1029.34901,1638.51795 1029.36834,1638.49258 1029.38647,1638.4672 C1029.39613,1638.4527 1029.4058,1638.4382 1029.41788,1638.42249 C1029.43843,1638.39349 1029.46018,1638.36328 1029.48072,1638.33428 C1029.4928,1638.31978 1029.5073,1638.30045 1029.51938,1638.28595 C1029.54234,1638.24849 1029.56893,1638.21587 1029.59672,1638.17841 C1029.60638,1638.1627 1029.61847,1638.15062 1029.62813,1638.13491 C1029.65834,1638.09624 1029.68613,1638.05637 1029.71755,1638.01166 C1029.73084,1637.99474 1029.74293,1637.97903 1029.75743,1637.96091 C1029.79005,1637.91499 1029.8263,1637.86908 1029.86134,1637.81953 C1029.87343,1637.80503 1029.8843,1637.78691 1029.8988,1637.77362 C1029.93384,1637.72408 1029.97251,1637.67212 1030.0148,1637.61774 C1030.02688,1637.59841 1030.04259,1637.57908 1030.05709,1637.56095 C1030.82197,1636.53991 1032.11972,1634.83737 1034.34063,1631.93495 C1034.55813,1631.64616 1034.78409,1631.35133 1035.02455,1631.03958 C1035.36772,1630.59128 1035.76405,1630.52603 1035.96947,1630.52603 C1036.02505,1630.52603 1036.07943,1630.53328 1036.13622,1630.53933 C1036.18576,1630.54899 1036.2353,1630.56349 1036.28243,1630.57799 C1036.36097,1630.60095 1036.4383,1630.63478 1036.51201,1630.67466 C1036.51926,1630.67949 1036.52409,1630.6807 1036.53013,1630.68433 C1036.60626,1630.72541 1036.68118,1630.77616 1036.75488,1630.8402 C1037.53184,1631.33441 1039.41201,1632.54153 1039.79747,1632.86778 Z" id="icon-editar-notas--neutro"></path>
        </g>
    </g>
</svg>