<?xml version="1.0" encoding="UTF-8"?>
<svg width="32px" height="12px" viewBox="0 0 32 12" version="1.1" xmlns="http://www.w3.org/2000/svg" xmlns:xlink="http://www.w3.org/1999/xlink">
    <!-- Generator: Sketch 55.2 (78181) - https://sketchapp.com -->
    <title>icon-anadir-enlace2--neutro</title>
    <desc>Created with Sketch.</desc>
    <g id="Page-1" stroke="none" stroke-width="1" fill="none" fill-rule="evenodd">
        <g id="Artboard" transform="translate(-781.000000, -1636.000000)" fill="#2A495D">
            <path d="M789.533333,1644.10731 L789.0704,1645.43104 C788.835733,1646.07211 788.512533,1646.40064 787.8352,1646.40064 C787.126933,1646.40064 786.885867,1646.03051 786.662933,1645.36811 L785.8896,1643.03104 L785.8608,1643.03104 L785.087467,1645.36811 C784.864533,1646.03051 784.624533,1646.40064 783.9184,1646.40064 C783.24,1646.40064 782.912533,1646.07211 782.678933,1645.43104 L781.306133,1641.56224 C781.1376,1641.12064 781.0224,1640.81344 781,1640.46464 C781,1639.93557 781.341333,1639.51744 782.003733,1639.51744 C782.470933,1639.51744 782.808,1639.76811 782.934933,1640.21184 L783.891733,1643.41184 L783.9248,1643.41184 L784.8144,1640.63104 C784.973333,1640.11477 785.16,1639.51744 785.881067,1639.51744 C786.589333,1639.51744 786.777067,1640.11477 786.934933,1640.63104 L787.824533,1643.41184 L787.856533,1643.41184 L788.512533,1641.22411 L789.533333,1644.10731 Z M812.000533,1639.51776 C812.652267,1639.51776 813,1639.93589 813,1640.46496 C812.966933,1640.81376 812.850667,1641.12096 812.696,1641.56256 L811.311467,1645.43136 C811.0896,1646.07243 810.752533,1646.40096 810.088,1646.40096 C809.379733,1646.40096 809.133333,1646.02976 808.9008,1645.36736 L808.133867,1643.03136 L808.1072,1643.03136 L807.327467,1645.36736 C807.104533,1646.02976 806.867733,1646.40096 806.160533,1646.40096 C805.482133,1646.40096 805.154667,1646.07243 804.933867,1645.43136 L804.162667,1643.28203 L805.219733,1640.32629 L806.146667,1643.41109 L806.169067,1643.41109 L807.056533,1640.63136 C807.221867,1640.11509 807.417067,1639.51776 808.1232,1639.51776 C808.831467,1639.51776 809.021333,1640.11509 809.189867,1640.63136 L810.073067,1643.41109 L810.096533,1643.41109 L811.0608,1640.21109 C811.1856,1639.76736 811.5344,1639.51776 812.000533,1639.51776 Z M804.983893,1637.60107 C804.942293,1638.2144 804.743893,1638.72427 804.46976,1639.48053 L804.16256,1640.3264 L803.104427,1643.28213 L802.125227,1646.04267 C801.729493,1647.1296 801.175893,1647.68747 800.03136,1647.68747 C798.82816,1647.68747 798.429227,1647.06453 798.035627,1645.92427 L796.723627,1641.9744 L796.686293,1641.9744 L795.377493,1645.92427 C794.98176,1647.06453 794.571093,1647.68747 793.36896,1647.68747 C792.225493,1647.68747 791.670827,1647.1296 791.28576,1646.04267 L790.589227,1644.10773 L789.566293,1641.22347 L788.94336,1639.48053 C788.656427,1638.72427 788.468693,1638.2144 788.42496,1637.60107 C788.42496,1636.7264 789.006293,1636 790.125227,1636 C790.918827,1636 791.50016,1636.41813 791.72096,1637.1808 L793.348693,1642.6208 L793.38816,1642.6208 L794.900693,1637.90933 C795.175893,1637.02187 795.502293,1636 796.70656,1636 C797.90656,1636 798.225493,1637.02187 798.51136,1637.90933 L800.00896,1642.6208 L800.054827,1642.6208 L801.690027,1637.1808 C801.91296,1636.41813 802.494293,1636 803.28576,1636 C804.40256,1636 804.983893,1636.7264 804.983893,1637.60107 Z" id="icon-anadir-enlace2--neutro"></path>
        </g>
    </g>
</svg>