<svg xmlns="http://www.w3.org/2000/svg" width="32" height="30" viewBox="0 0 32 30">
  <path fill="#49c583" fill-rule="evenodd" d="M812.754562,222.163184 L794.312014,249.266206 C794.078461,249.597526 793.719984,249.818858 793.318056,249.859594 C793.263741,249.873173 793.224363,249.873173 793.16869,249.873173 C792.823792,249.873173 792.476178,249.73467 792.216825,249.486181 L781.429931,239.265517 C781.151569,239.018385 781.000845,238.659908 781.000845,238.286495 C780.987267,237.914439 781.13799,237.554605 781.401416,237.293894 L784.946806,233.748504 C785.222453,233.472857 785.594509,233.308555 785.981501,233.347933 C786.368493,233.36287 786.72697,233.527172 786.972744,233.817755 L792.091902,239.762496 L810.617279,220.423757 C811.112901,219.89962 811.927621,219.860242 812.492493,220.313769 C813.043787,220.755076 813.168711,221.569796 812.754562,222.163184" transform="translate(-781 -220)"/>
</svg>
