<svg xmlns="http://www.w3.org/2000/svg" width="32" height="32" viewBox="0 0 32 32">
  <path fill="#FFF" fill-rule="evenodd" d="M351.989818,241 C351.989818,242.536 350.743273,243.792727 349.197091,243.792727 L338.779636,243.792727 L338.779636,254.208727 C338.779636,255.743273 337.534545,257 335.986909,257 C334.449455,257 333.197091,255.743273 333.197091,254.208727 L333.197091,243.792727 L322.792727,243.792727 C321.242182,243.792727 320,242.536 320,241 C320,239.450909 321.242182,238.207273 322.792727,238.207273 L333.197091,238.207273 L333.197091,227.792727 C333.197091,226.242182 334.449455,225 335.986909,225 C337.534545,225 338.779636,226.242182 338.779636,227.792727 L338.779636,238.207273 L349.197091,238.207273 C350.743273,238.207273 351.989818,239.450909 351.989818,241" transform="translate(-320 -225)"/>
</svg>
