<?xml version="1.0" encoding="UTF-8"?>
<svg width="16px" height="14px" viewBox="0 0 16 14" version="1.1" xmlns="http://www.w3.org/2000/svg" xmlns:xlink="http://www.w3.org/1999/xlink">
    <!-- Generator: Sketch 55.2 (78181) - https://sketchapp.com -->
    <title>icon-comment-plus--neutro</title>
    <desc>Created with Sketch.</desc>
    <g id="Page-1" stroke="none" stroke-width="1" fill="none" fill-rule="evenodd">
        <g id="Artboard" transform="translate(-813.000000, -868.000000)" fill="#2A495D">
            <path d="M819.360005,874.013773 C819.309415,873.840054 819.245799,873.671884 819.170286,873.510392 C819.227875,873.528396 819.288892,873.538091 819.351915,873.538091 L822.491979,873.538091 C822.833329,873.538091 823.115031,873.255636 823.115031,872.908773 C823.115031,872.561318 822.833329,872.285364 822.491979,872.285364 L819.351915,872.285364 C819.044127,872.285364 818.784204,872.511283 818.737509,872.811671 C818.283455,872.240111 817.655501,871.812914 816.933648,871.610079 C818.07673,869.746046 820.133031,868.5 822.474852,868.5 C826.054891,868.5 828.968766,871.414955 828.968766,874.997636 C828.968766,876.162318 828.662851,877.290955 828.08291,878.274818 L828.951049,880.795636 C829.014831,880.982364 828.968766,881.189182 828.826439,881.329227 C828.69297,881.468682 828.48627,881.520682 828.300831,881.458045 L825.718266,880.625455 C824.735556,881.195091 823.617606,881.5 822.474852,881.5 C820.134345,881.5 818.079038,880.253082 816.935574,878.389379 C817.787394,878.149499 818.508298,877.597146 818.966738,876.86387 C819.073097,876.949226 819.207216,877.000227 819.351915,877.000227 L824.056991,877.000227 C824.405427,877.000227 824.68713,876.718364 824.68713,876.370909 C824.68713,876.023455 824.405427,875.7475 824.056991,875.7475 L819.420489,875.7475 C819.454448,875.590419 819.477926,875.429435 819.490153,875.265318 L826.133437,875.265318 C826.474787,875.265318 826.756489,874.983455 826.756489,874.6425 C826.756489,874.296227 826.474787,874.013773 826.133437,874.013773 L819.360005,874.013773 Z M815.979167,877.979167 C814.333818,877.979167 813,876.645348 813,875 C813,873.354652 814.333818,872.020833 815.979167,872.020833 C817.624515,872.020833 818.958333,873.354652 818.958333,875 C818.958333,876.645348 817.624515,877.979167 815.979167,877.979167 Z M818.145833,875 C818.145833,874.790227 817.976977,874.621818 817.767531,874.621818 L816.356385,874.621818 L816.356385,873.211515 C816.356385,873.001545 816.187725,872.833333 815.978083,872.833333 C815.76982,872.833333 815.600175,873.001545 815.600175,873.211515 L815.600175,874.621818 L814.190802,874.621818 C813.980766,874.621818 813.8125,874.790227 813.8125,875 C813.8125,875.208 813.980766,875.378182 814.190802,875.378182 L815.600175,875.378182 L815.600175,876.788682 C815.600175,876.996485 815.76982,877.166667 815.978083,877.166667 C816.187725,877.166667 816.356385,876.996485 816.356385,876.788682 L816.356385,875.378182 L817.767531,875.378182 C817.976977,875.378182 818.145833,875.208 818.145833,875 Z" id="icon-comment-plus--neutro"></path>
        </g>
    </g>
</svg>