<?xml version="1.0" encoding="UTF-8"?>
<svg width="30px" height="33px" viewBox="0 0 30 33" version="1.1" xmlns="http://www.w3.org/2000/svg" xmlns:xlink="http://www.w3.org/1999/xlink">
    <!-- Generator: Sketch 55.2 (78181) - https://sketchapp.com -->
    <title>icon-adjuntar--neutro</title>
    <desc>Created with Sketch.</desc>
    <g id="Page-1" stroke="none" stroke-width="1" fill="none" fill-rule="evenodd">
        <g id="Artboard" transform="translate(-438.000000, -1624.000000)" fill="#2A495D">
            <path d="M465.324645,1645.6745 L453.108903,1633.8405 C452.253677,1632.985 451.209548,1632.55725 449.976,1632.55725 C448.826581,1632.55725 447.852645,1632.94425 447.053677,1633.71825 C446.254452,1634.49225 445.854968,1635.436 445.854968,1636.5495 C445.854968,1637.7445 446.296516,1638.75625 447.179613,1639.5845 L455.8,1647.9355 C455.940129,1648.07125 456.09471,1648.139 456.26271,1648.139 C456.486968,1648.139 456.816516,1647.9285 457.250581,1647.50775 C457.685161,1647.08675 457.902194,1646.7675 457.902194,1646.55025 C457.902194,1646.38775 457.832258,1646.23825 457.692129,1646.10225 L449.072,1637.75125 C448.721548,1637.3845 448.546323,1636.984 448.546323,1636.5495 C448.546323,1636.1555 448.679484,1635.82975 448.945806,1635.57175 C449.212129,1635.31375 449.548645,1635.18475 449.955097,1635.18475 C450.431742,1635.18475 450.852129,1635.3475 451.216774,1635.6735 L463.432258,1647.5075 C464.315613,1648.36275 464.757161,1649.347 464.757161,1650.4605 C464.757161,1651.33 464.46271,1652.0495 463.874065,1652.61975 C463.284903,1653.19 462.542452,1653.4755 461.645161,1653.4755 C460.495742,1653.4755 459.479742,1653.0475 458.596903,1652.192 L442.280774,1636.36575 C441.215484,1635.33375 440.683097,1634.10475 440.683097,1632.679 C440.683097,1631.2395 441.194581,1630.0105 442.217806,1628.99225 C443.241032,1627.974 444.495484,1627.46475 445.981419,1627.46475 C447.411097,1627.46475 448.679484,1627.9875 449.786839,1629.03275 L462.528258,1641.39625 C462.668387,1641.53225 462.829419,1641.59975 463.011871,1641.59975 C463.236129,1641.59975 463.562065,1641.39275 463.989419,1640.9785 C464.417032,1640.5645 464.630452,1640.24875 464.630452,1640.0315 C464.630452,1639.86875 464.560516,1639.71925 464.420645,1639.5835 L451.700129,1627.24025 C450.088258,1625.70575 448.174968,1624.9385 445.960258,1624.9385 C443.731613,1624.9385 441.846452,1625.69225 440.304516,1627.1995 C438.762581,1628.70675 437.991742,1630.54 437.991742,1632.699 C437.991742,1634.81725 438.783484,1636.65725 440.367484,1638.21875 L456.704258,1654.02475 C458.106065,1655.38225 459.752774,1656.0615 461.645161,1656.0615 C463.285161,1656.0615 464.658839,1655.52475 465.766194,1654.452 C466.873548,1653.37975 467.427613,1652.04875 467.427613,1650.45975 C467.427355,1648.5995 466.726194,1647.0045 465.324645,1645.6745 L465.324645,1645.6745 Z" id="icon-adjuntar--neutro"></path>
        </g>
    </g>
</svg>