<svg xmlns="http://www.w3.org/2000/svg" width="32" height="25" viewBox="0 0 32 25">
  <g id="Page-1" fill="none" fill-rule="evenodd" stroke="none" stroke-width="1">
    <g id="Artboard" fill="#1F7B9E" transform="translate(-596 -908)">
      <path id="icon-message-copy-2" d="M625.281598,912.446341 L625.357231,928.588143 C625.36014,928.653595 625.371776,928.714683 625.383412,928.771407 C625.335414,928.913946 625.309233,929.052122 625.309233,929.19757 C625.312142,929.546644 625.240873,929.820086 625.118697,929.930627 C625.028519,930.013532 624.835073,930.051348 624.709988,930.051348 L624.465636,930.036804 C624.385639,930.038258 622.742079,930.042622 620.212741,930.049894 L616.90962,930.058621 C611.12225,930.07462 603.647685,930.096437 600.634006,930.109528 L608.33256,921.328841 L610.207383,922.858952 C610.728086,923.28366 611.532413,923.295296 612.072025,922.873497 L614.549001,920.918678 L618.689902,925.321384 C619.23824,925.900267 620.230194,925.926447 620.793078,925.385381 C621.392323,924.823953 621.419958,923.878542 620.861438,923.279297 L616.897984,919.064218 L625.281598,912.446341 Z M598.645734,913.42375 L606.022848,919.442382 L598.690822,927.808543 L598.676278,924.055988 C598.664642,920.550695 598.65446,916.088355 598.645734,913.42375 Z M622.758078,910.638424 L611.168793,919.792912 L600.017307,910.696603 L622.758078,910.638424 Z M628.000018,928.553236 L627.908386,911.351118 C627.911295,911.018043 627.860389,909.86755 627.016791,908.989045 C626.673534,908.623971 626.045199,908.161447 625.028519,908.031999 C624.846709,908.011636 624.664899,908 624.459818,908 L599.477695,908.059634 L599.253706,908.053816 C599.147529,908.053816 599.01808,908.059634 598.860996,908.071269 C598.357747,908.119267 597.629053,908.290896 597.000718,908.849415 C596.333113,909.495204 595.997128,910.353346 596.000018,911.404934 L596.017491,915.37566 C596.029127,918.175532 596.043672,921.849544 596.046581,924.709049 C596.053853,927.079849 596.056762,928.905219 596.056762,929.196115 C596.034945,929.667366 596.091669,930.118254 596.222572,930.537144 C596.360748,931.002577 596.583283,931.404013 596.88436,931.728362 C597.51124,932.409058 598.372292,932.753769 599.441333,932.753769 L599.474786,932.753769 L599.477695,932.753769 C601.63905,932.733407 622.75226,932.672319 624.394366,932.667955 C624.488907,932.676682 624.579085,932.681046 624.685262,932.681046 C625.168149,932.681046 626.096106,932.579232 626.869889,931.904354 C627.360048,931.460738 627.946203,930.628776 627.940385,929.187388 C627.940385,929.117573 627.934567,929.053576 627.917113,928.993943 C627.970929,928.84704 628.000018,928.703047 628.000018,928.553236 L628.000018,928.553236 Z"/>
    </g>
  </g>
</svg>
