<?xml version="1.0" encoding="UTF-8"?>
<svg width="12px" height="16px" viewBox="0 0 12 16" version="1.1" xmlns="http://www.w3.org/2000/svg" xmlns:xlink="http://www.w3.org/1999/xlink">
    <!-- Generator: Sketch 55.2 (78181) - https://sketchapp.com -->
    <title>icon-lock-open--neutro-claro</title>
    <desc>Created with Sketch.</desc>
    <g id="Page-1" stroke="none" stroke-width="1" fill="none" fill-rule="evenodd">
        <g id="Artboard" transform="translate(-819.000000, -758.000000)" fill="#1F7B9E">
            <path d="M830.699489,766.289651 C830.505319,766.096508 830.26966,766 829.992128,766 L822.337277,766 L822.337277,762.689397 C822.337277,761.958222 822.597319,761.334095 823.117404,760.816762 C823.637489,760.299556 824.264936,760.040889 825,760.040889 C825.735064,760.040889 826.362511,760.299556 826.882468,760.816762 C827.402553,761.334095 827.662596,761.958222 827.662596,762.689397 C827.662596,762.868698 827.728468,763.023873 827.860085,763.154921 C827.991957,763.285968 828.147957,763.351492 828.328085,763.351492 L828.993957,763.351492 C829.174213,763.351492 829.330213,763.285968 829.461957,763.154921 C829.593447,763.023873 829.659574,762.868698 829.659574,762.689397 C829.659574,761.413333 829.203574,760.322032 828.29183,759.414984 C827.380085,758.507937 826.282851,758.054476 825,758.054476 C823.717149,758.054476 822.619915,758.507937 821.708043,759.414984 C820.796298,760.321905 820.340426,761.413333 820.340426,762.689397 L820.340426,766 L820.007617,766 C819.73034,766 819.494553,766.096635 819.300383,766.289651 C819.106213,766.482667 819.009191,766.717206 819.009191,766.993143 L819.009191,772.952381 C819.009191,773.228317 819.106213,773.462857 819.300383,773.655873 C819.494553,773.848889 819.73034,773.945524 820.007617,773.945524 L829.992128,773.945524 C830.26966,773.945524 830.505447,773.848889 830.699489,773.655873 C830.893532,773.462857 830.990681,773.228317 830.990681,772.952381 L830.990681,766.993143 C830.990809,766.717206 830.893787,766.482794 830.699489,766.289651 L830.699489,766.289651 Z" id="icon-lock-open--neutro-claro"></path>
        </g>
    </g>
</svg>