<?xml version="1.0" encoding="UTF-8"?>
<svg width="44px" height="44px" viewBox="0 0 44 44" version="1.1" xmlns="http://www.w3.org/2000/svg" xmlns:xlink="http://www.w3.org/1999/xlink">
    <!-- Generator: Sketch 55.2 (78181) - https://sketchapp.com -->
    <title>icon-view-in-circle</title>
    <desc>Created with Sketch.</desc>
    <g id="Page-1" stroke="none" stroke-width="1" fill="none" fill-rule="evenodd">
        <g id="Artboard" transform="translate(-652.000000, -1160.000000)" fill="#FFFFFF">
            <path d="M674,1203.78794 C661.849736,1203.78794 652,1194.06644 652,1182.07437 C652,1170.0823 661.849736,1160.3608 674,1160.3608 C686.150264,1160.3608 696,1170.0823 696,1182.07437 C696,1194.06644 686.150264,1203.78794 674,1203.78794 Z M674.001,1176.3079 C678.554333,1176.3079 683.019889,1178.41266 686.277667,1182.08898 C683.019889,1185.76314 678.556556,1187.86682 674.001,1187.86682 C669.445444,1187.86682 664.981,1185.76314 661.724333,1182.08898 C664.983222,1178.41266 669.447667,1176.3079 674.001,1176.3079 Z M688.748778,1181.38091 C684.984333,1176.68999 679.608778,1174.00022 674.001,1174.00022 C668.393222,1174.00022 663.017667,1176.68999 659.252111,1181.37983 C658.915444,1181.79863 658.915444,1182.38149 659.252111,1182.80028 C663.015444,1187.4858 668.393222,1190.1745 674.001,1190.1745 C679.611,1190.1745 684.986556,1187.4858 688.748778,1182.80028 C689.083222,1182.38149 689.083222,1181.79863 688.748778,1181.38091 Z M674.001,1179.58874 C675.417667,1179.58874 676.572111,1180.70912 676.572111,1182.08639 C676.572111,1183.46474 675.417667,1184.58512 674.001,1184.58512 C672.582111,1184.58512 671.429889,1183.46474 671.429889,1182.08639 C671.429889,1180.70912 672.582111,1179.58874 674.001,1179.58874 Z M674.001,1186.46321 C676.485444,1186.46321 678.506556,1184.49985 678.506556,1182.08639 C678.506556,1179.67401 676.485444,1177.71172 674.001,1177.71172 C671.518778,1177.71172 669.495444,1179.67401 669.495444,1182.08639 C669.495444,1184.49985 671.518778,1186.46321 674.001,1186.46321 Z" id="icon-view-in-circle"></path>
        </g>
    </g>
</svg>