<?xml version="1.0" encoding="UTF-8"?>
<svg width="9px" height="9px" viewBox="0 0 9 9" version="1.1" xmlns="http://www.w3.org/2000/svg" xmlns:xlink="http://www.w3.org/1999/xlink">
    <!-- Generator: Sketch 55.2 (78181) - https://sketchapp.com -->
    <title>icon-table-plus--neutro-claro</title>
    <desc>Created with Sketch.</desc>
    <g id="Page-1" stroke="none" stroke-width="1" fill="none" fill-rule="evenodd">
        <g id="Artboard" transform="translate(-821.000000, -801.000000)" fill="#1F7B9E">
            <path d="M829.997136,805.5 C829.997136,805.932 829.646545,806.285455 829.211682,806.285455 L826.281773,806.285455 L826.281773,809.214955 C826.281773,809.646545 825.931591,810 825.496318,810 C825.063909,810 824.711682,809.646545 824.711682,809.214955 L824.711682,806.285455 L821.785455,806.285455 C821.349364,806.285455 821,805.932 821,805.5 C821,805.064318 821.349364,804.714545 821.785455,804.714545 L824.711682,804.714545 L824.711682,801.785455 C824.711682,801.349364 825.063909,801 825.496318,801 C825.931591,801 826.281773,801.349364 826.281773,801.785455 L826.281773,804.714545 L829.211682,804.714545 C829.646545,804.714545 829.997136,805.064318 829.997136,805.5" id="icon-table-plus--neutro-claro"></path>
        </g>
    </g>
</svg>