<?xml version="1.0" encoding="UTF-8"?>
<svg width="13px" height="16px" viewBox="0 0 13 16" version="1.1" xmlns="http://www.w3.org/2000/svg" xmlns:xlink="http://www.w3.org/1999/xlink">
    <!-- Generator: Sketch 55.2 (78181) - https://sketchapp.com -->
    <title>icon-lock-close--neutro-claro</title>
    <desc>Created with Sketch.</desc>
    <g id="Page-1" stroke="none" stroke-width="1" fill="none" fill-rule="evenodd">
        <g id="Artboard" transform="translate(-837.000000, -758.000000)" fill="#1F7B9E">
            <path d="M848.230078,762.702983 L848.230078,766 L848.562759,766 C848.84029,766 849.07595,766.096508 849.27012,766.289651 C849.464418,766.482794 849.561439,766.717206 849.561312,766.993143 L849.561312,772.952381 C849.561312,773.228317 849.464163,773.462857 849.27012,773.655873 C849.076078,773.848889 848.84029,773.945524 848.562759,773.945524 L838.578248,773.945524 C838.300971,773.945524 838.065184,773.848889 837.871014,773.655873 C837.676844,773.462857 837.579822,773.228317 837.579822,772.952381 L837.579822,766.993143 C837.579822,766.717206 837.676844,766.482667 837.871014,766.289651 C838.065184,766.096635 838.300971,766 838.578248,766 L838.911056,766 L838.911056,762.689397 C838.911056,761.413333 839.366929,760.321905 840.278673,759.414984 C841.190546,758.507937 842.28778,758.054476 843.570631,758.054476 C844.853482,758.054476 845.950716,758.507937 846.862461,759.414984 C847.774205,760.322032 848.230205,761.413333 848.230205,762.689397 C848.230205,762.693941 848.230163,762.69847 848.230078,762.702983 L848.230078,762.702983 Z M846.233227,762.689397 C846.233227,761.958222 845.973184,761.334095 845.453099,760.816762 C844.933142,760.299556 844.305695,760.040889 843.570631,760.040889 C842.835567,760.040889 842.20812,760.299556 841.688035,760.816762 C841.16795,761.334095 840.907907,761.958222 840.907907,762.689397 L840.907907,766 L846.233227,766 L846.233227,762.690003 L846.233227,762.689397 Z" id="icon-lock-close--neutro-claro"></path>
        </g>
    </g>
</svg>