<svg xmlns="http://www.w3.org/2000/svg" width="28" height="25" viewBox="0 0 28 25">
  <g id="Page-1" fill="none" fill-rule="evenodd" stroke="none" stroke-width="1">
    <g id="Artboard" fill="#1F7B9E" transform="translate(-649 -908)">
      <path id="icon-crear-deberes-neutro" d="M672.08096,913.914743 C674.27056,913.914743 676.06032,915.688567 676.06032,917.857314 L676.06032,917.857314 L676.06032,928.462541 C676.06032,930.631287 674.27056,932.405111 672.08096,932.405111 L672.08096,932.405111 L652.9816,932.405111 C650.792,932.405111 649,930.631287 649,928.462541 L649,928.462541 L649,917.857314 C649,917.632119 649.03136,917.415799 649.06832,917.201698 C649.38752,915.343565 651.01936,913.914743 652.9816,913.914743 L652.9816,913.914743 Z M655.52176,916.661453 C654.7736,916.64925 654.66608,917.260493 654.6616,917.666509 C654.65936,917.731959 654.66608,917.794082 654.66608,917.859533 C654.62016,922.852642 658.96688,926.810743 664.036,926.810743 C664.036,926.810743 664.03152,927.624994 664.03824,928.461431 C664.04048,928.738765 664.0416,929.019426 664.04608,929.272354 C664.05056,929.579639 664.52096,929.863629 664.94992,929.46205 L664.94992,929.46205 L666.17744,928.461431 L670.24752,925.141197 C670.4648,924.920439 670.45584,924.594295 670.2352,924.379085 L670.2352,924.379085 L664.8424,920.214647 C664.60832,919.988343 664.03824,920.056013 664.03152,920.513058 C664.029634,920.843756 664.021393,922.332439 664.018838,922.794304 L664.01808,922.931405 C660.5416,922.931405 657.06176,921.081037 656.34608,917.859533 C656.32368,917.758583 656.29344,917.658743 656.27776,917.554466 C656.21504,917.173965 656.06832,916.669218 655.52176,916.661453 Z M655.969984,908 C656.516544,908 657.131424,908.412672 657.334144,908.9152 L657.334144,908.9152 L657.760864,909.971285 L672.081184,909.971285 C674.183424,909.971285 675.900384,911.611989 676.033664,913.662037 C675.025664,912.62592 673.437504,911.942571 672.081184,911.942571 L672.081184,911.942571 L652.981824,911.942571 C651.623264,911.942571 650.037344,912.627029 649.027104,913.662037 C649.018144,913.670912 649.009184,913.678677 649.000224,913.687552 L649.000224,913.687552 L649.000224,908.985088 C649.000224,908.443733 649.448224,908 649.995904,908 L649.995904,908 Z"/>
    </g>
  </g>
</svg>
