<svg xmlns="http://www.w3.org/2000/svg" width="200" height="124" viewBox="0 0 200 124">
  <defs>
    <linearGradient id="linearGradient-1" x1="12.333%" x2="87.667%" y1="100%" y2="0%">
      <stop offset="0%" stop-color="#14D0F5"/>
      <stop offset="100%" stop-color="#91E30C"/>
    </linearGradient>
  </defs>
  <g id="Page-1" fill="none" fill-rule="evenodd" stroke="none" stroke-width="1">
    <g id="Artboard" transform="translate(-435 -2253)">
      <g id="logo-color" transform="translate(435 2253)">
        <path id="Mask" fill="#2A455D" d="M162.864894 120.849173L158.580764 120.834271 158.580764 117.383196 158.580764 112.031676C158.580764 110.386925 155.585305 110.945372 155.585305 110.945372L155.585305 121.82567C155.585305 122.990408 156.57053 123.728468 159.565989 123.40689 163.181602 123.020213 163.013887 121.82567 162.864894 120.849173L162.864894 120.849173zM96.3313838 122.575495C96.3313838 122.575495 96.5498027 120.288373 98.5974796 120.63505 100.869816 121.020943 103.559488 121.356638 103.474461 119.856989 103.384753 118.279691 96.8961526 118.401263 96.8555891 114.213697 96.8041046 108.747665 106.213278 111.435582 106.213278 111.435582 106.213278 111.435582 106.274123 113.731331 104.284171 113.59721 102.760699 113.49603 99.9212541 113.02386 99.8494878 114.1635 99.7574399 115.604323 106.647775 115.808251 106.46758 119.786399 106.179735 126.094807 96.3313838 122.575495 96.3313838 122.575495L96.3313838 122.575495zM126.979453 110.945372L126.979453 118.512638 122.983947 112.034814C122.582993 111.383031 121.925396 111.077925 121.27716 110.945372 120.980734 110.877135 120.660126 110.853605 120.365261 110.854313 119.766169 110.851252 119.31763 110.945372 119.31763 110.945372L119.31763 122.278232C119.31763 123.92612 122.311529 123.369242 122.311529 123.369242L122.311529 115.801192 126.306254 122.278232C126.706429 122.930015 127.364806 123.235905 128.013042 123.369242 128.307907 123.437479 128.628515 123.461009 128.924941 123.458656 129.523253 123.462578 129.972571 123.369242 129.972571 123.369242L129.972571 112.034814C129.972571 110.388494 126.979453 110.945372 126.979453 110.945372L126.979453 110.945372zM183.353365 110.945372L183.353365 118.512638 179.36098 112.034814C178.960025 111.383031 178.301648 111.077925 177.653412 110.945372 177.357767 110.877135 177.037939 110.853605 176.742294 110.854313 176.142422 110.851252 175.694663 110.945372 175.694663 110.945372L175.694663 122.278232C175.694663 123.92612 178.688562 123.369242 178.688562 123.369242L178.688562 115.801192 182.682507 122.278232C183.084242 122.930015 183.741058 123.235905 184.390075 123.369242 184.68416 123.437479 185.005548 123.461009 185.301193 123.458656 185.900285 123.462578 186.348824 123.369242 186.348824 123.369242L186.348824 112.034814C186.348824 110.388494 183.353365 110.945372 183.353365 110.945372L183.353365 110.945372zM114.227691 111.64343C113.63952 110.164174 111.137063 110.945372 111.137063 110.945372L106.593951 122.303331C106.00656 123.904159 109.368651 123.369242 109.368651 123.369242L110.29069 120.890743 114.673889 120.890743 115.162991 122.282154C115.822928 124.018672 118.760662 123.369242 118.760662 123.369242L114.227691 111.64343zM111.295417 118.194198L112.548205 114.8294 113.729227 118.194198 111.295417 118.194198zM199.232417 123.369242C199.232417 123.369242 196.293123 124.018672 195.631626 122.282154L195.145644 120.890743 190.760885 120.890743 189.838846 123.369242C189.838846 123.369242 186.478315 123.904159 187.065706 122.303331L191.608038 110.945372C191.608038 110.945372 194.108935 110.164174 194.697885 111.64343L199.232417 123.369242zM194.197862 118.194198L193.01762 114.8294 191.765612 118.194198 194.197862 118.194198zM170.752936 111.64343C170.164765 110.164174 167.662309 110.945372 167.662309 110.945372L163.119196 122.303331C162.533366 123.904159 165.893896 123.369242 165.893896 123.369242L166.815936 120.890743 171.199915 120.890743 171.688237 122.282154C172.348174 124.018672 175.286688 123.369242 175.286688 123.369242L170.752936 111.64343zM167.820663 118.194198L169.073451 114.8294 170.254473 118.194198 167.820663 118.194198zM140.473059 110.904587L132.418863 110.904587C130.548261 110.904587 131.034243 113.615249 131.034243 113.615249L131.035023 113.615249 134.254361 113.615249 134.254361 122.278232C134.254361 123.92612 137.258401 123.369242 137.258401 123.369242L137.258401 113.615249 139.089219 113.615249C141.072151 113.615249 140.473059 110.904587 140.473059 110.904587L140.473059 110.904587zM141.723507 110.945372L141.723507 122.278232C141.723507 123.92612 144.718966 123.369242 144.718966 123.369242L144.718966 112.034814C144.718966 110.388494 141.723507 110.945372 141.723507 110.945372L141.723507 110.945372zM154.798997 120.843683L149.7426 120.843683 149.7426 112.033245C149.7426 110.388494 146.748701 110.945372 146.748701 110.945372L146.748701 121.82567C146.748701 123.237474 148.169984 123.764547 151.502432 123.40689 155.114924 123.018644 154.94877 121.821749 154.798997 120.843683L154.798997 120.843683zM188.173324 70.139517C192.933295 70.139517 197.052051 72.2858806 199.298645 75.0836044L199.298645 75.6742088 195.661191 78.9009639 195.07224 78.9009639C193.200858 77.1260133 190.954264 76.2663819 188.654625 76.2663819 186.408031 76.2663819 185.284734 77.1260133 185.284734 78.3636943 185.284734 79.5998066 186.461856 80.1378606 189.456534 81.2673033 193.468421 82.773227 199.939861 84.3866046 199.939861 90.4095148 199.939861 95.6802476 195.126064 98.7995488 188.440887 98.7995488 183.03814 98.7995488 178.599556 96.7555712 176.032354 93.63627L176.032354 93.0448812 179.775118 89.656553 180.364069 89.656553C181.968667 91.4856228 184.910302 93.1515508 187.90498 93.1515508 190.205399 93.1515508 191.650084 92.1311307 191.650084 90.625207 191.650084 88.7961373 189.671053 88.1506294 187.050026 87.2368788 182.503794 85.7309552 177.154871 84.0642428 177.154871 78.6860561 177.154871 73.7918042 181.54119 70.6191682 188.173324 70.6191682L188.173324 70.139517zM152.883073 89.92558C152.883073 87.7208137 154.754455 86.21489 158.071302 86.21489 160.050333 86.21489 161.815625 86.7521596 162.832053 87.1294249L162.832053 88.9577103C162.832053 91.4856228 160.424765 93.5288161 157.429306 93.5288161 155.076623 93.5288161 152.883073 92.2385846 152.883073 89.92558zM173.368424 91.5389576L172.887122 91.2707149C172.673384 91.4315037 172.405821 91.5389576 172.084433 91.5389576 171.228699 91.5389576 170.854267 90.7859958 170.854267 89.5490991L170.854267 81.0516112C170.854267 73.4161076 164.115264 70.6191682 157.911388 70.6191682 153.042987 70.6191682 149.192575 72.2858806 146.357809 74.9753661L146.357809 75.5667549 150.048308 79.1166561 150.636479 79.1166561C152.081164 77.7189707 154.273934 76.5346245 157.001829 76.5346245 160.264851 76.5346245 162.832053 78.2562404 162.832053 81.1590651L162.832053 82.3434113C161.120585 81.7504538 159.194599 81.3747573 156.788091 81.3747573 150.209002 81.3747573 144.752431 84.1183619 144.752431 89.9789148 144.752431 95.5727937 149.780745 98.7995488 155.610969 98.7995488 159.140774 98.7995488 162.190058 97.615987 164.435872 95.7335824 165.559169 97.77756 167.53898 98.7995488 169.945488 98.7995488 171.496262 98.7995488 172.940167 98.3689488 174.063464 97.6693218L174.384852 97.0787173 173.368424 91.5389576zM120.722454 74.3839773C118.743423 71.9635188 115.801789 70.6191682 112.164334 70.6191682 108.794443 70.6191682 105.906633 71.8027301 103.713864 73.6310155 102.590567 71.6403727 100.557711 70.6191682 98.0973784 70.6191682 96.5466044 70.6191682 95.1557442 71.0489839 93.9794025 71.7478266L93.6587948 72.3399997 94.6744426 77.8789751 95.2087888 78.1487864C95.3694826 77.9872134 95.6370458 77.8789751 96.0114781 77.8789751 96.8679922 77.8789751 97.1885999 78.631937 97.1885999 79.869618L97.1885999 98.1540409 105.479156 98.1540409 105.479156 82.8265618C105.479156 79.7080449 107.403583 77.6648516 110.345217 77.6648516 113.341456 77.6648516 114.999099 79.7080449 114.999099 82.8265618L114.999099 98.1540409 123.289656 98.1540409 123.289656 82.8265618C123.289656 79.7080449 125.214862 77.6648516 128.156496 77.6648516 131.098911 77.6648516 132.810379 79.7080449 132.810379 82.8265618L132.810379 98.1540409 141.100935 98.1540409 141.100935 82.2359574C141.100935 75.1910583 136.607747 70.6191682 129.975614 70.6191682 126.178245 70.6191682 122.968268 72.1243075 120.722454 74.3839773zM91.3217128 75.0836044L91.3217128 75.6742088 87.6850385 78.9009639 87.0953075 78.9009639C85.2247058 77.1260133 82.9781117 76.2663819 80.6776929 76.2663819 78.4310987 76.2663819 77.3078016 77.1260133 77.3078016 78.3636943 77.3078016 79.5998066 78.4849233 80.1378606 81.4803822 81.2673033 85.4914889 82.773227 91.9637083 84.3866046 91.9637083 90.4095148 91.9637083 95.6802476 87.1491322 98.7995488 80.4639544 98.7995488 75.0619875 98.7995488 70.6226238 96.7555712 68.0554219 93.63627L68.0554219 93.0448812 71.7989655 89.656553 72.3871363 89.656553C73.991735 91.4856228 76.9333692 93.1515508 79.9296082 93.1515508 82.2284669 93.1515508 83.6731518 92.1311307 83.6731518 90.625207 83.6731518 88.7961373 81.6941207 88.1506294 79.0730942 87.2368788 74.5276413 85.7309552 69.178719 84.0642428 69.178719 78.6860561 69.178719 73.7918042 73.563478 70.6191682 80.1963913 70.6191682 84.9563627 70.6191682 89.0751186 72.2858806 91.3217128 75.0836044zM55.9518958 98.1532566L64.1886277 98.1532566 64.1886277 71.2638918 55.9518958 71.2638918 55.9518958 98.1532566zM53.0851481 71.7478266C51.534374 70.9948648 49.9836 70.6191682 48.1644828 70.6191682 45.169804 70.6191682 42.4419082 71.8560649 40.4628771 73.9533773 39.500274 71.7478266 37.5212429 70.6191682 35.2738687 70.6191682 33.5093562 70.6191682 32.1723206 71.0489839 30.9951989 71.7478266L30.6745912 72.3399997 31.6902389 77.8789751 32.2253652 78.1487864C32.3860591 77.9872134 32.6536222 77.8789751 32.97501 77.8789751 33.8837885 77.8789751 34.2043962 78.631937 34.2043962 79.869618L34.2043962 98.1540409 42.4419082 98.1540409 42.4419082 83.4720697C42.4419082 79.7080449 44.7415469 77.6648516 47.5232674 77.6648516 48.8603029 77.6648516 49.8236862 77.8789751 51.1599417 78.524483L51.6412433 78.2562404 53.3527112 72.3399997 53.0851481 71.7478266zM8.34438119 79.5998066L8.34438119 70.0818986 15.2440775 70.0818986C18.1326672 70.0818986 20.1116982 71.9635188 20.1116982 74.8679122 20.1116982 77.7715212 18.1326672 79.5998066 15.2440775 79.5998066L8.34438119 79.5998066zM9.9475983e-14 63.1977882L9.9475983e-14 98.1540409 8.34438119 98.1540409 8.34438119 86.1074361 15.1372083 86.1074361C24.0159357 86.1074361 28.6159932 81.6445686 28.6159932 74.65222 28.6159932 67.66144 23.962111 63.1977882 15.1372083 63.1977882L9.9475983e-14 63.1977882z"/>
        <path id="Mask" fill="url(#linearGradient-1)" d="M33.7185437,15.3717665 C33.2337826,15.6530295 32.9355609,16.172471 32.9355609,16.7346936 L32.9355609,47.0583042 C32.9355609,47.6202234 33.2337826,48.1402717 33.7185437,48.4212313 C33.7194493,48.4215347 33.7203548,48.4218382 33.7209585,48.4218382 L59.8373913,63.5830367 C60.07947,63.7238199 60.3496202,63.7936047 60.6203741,63.7936047 C60.8908262,63.7936047 61.1606746,63.7238199 61.4030552,63.5830367 L87.5203935,48.4218382 C87.521299,48.4218382 87.5219027,48.4215347 87.5225064,48.4212313 C88.0072676,48.1402717 88.3054893,47.6202234 88.3054893,47.0583042 L88.3054893,16.734997 C88.3054893,16.172471 88.0072676,15.6530295 87.5225064,15.3717665 L61.4030552,0.211174812 C61.1606746,0.0703916039 60.8905244,1.81188398e-13 60.6203741,1.81188398e-13 C60.3499221,1.81188398e-13 60.0797719,0.0703916039 59.8373913,0.211174812 L33.7185437,15.3717665 Z M62.0776284,4.38276673 L83.448478,16.8001513 L73.8122793,22.3998215 L62.0776284,29.2184449 L62.0776284,4.38276673 Z M47.5508588,22.4707226 L37.7925721,16.8001513 L59.1634217,4.38276673 L59.1634217,29.2184449 L47.5508588,22.4707226 Z M73.1707651,37.4961012 L63.5347318,31.8968023 L75.0226324,25.2212745 L84.9055814,19.4789633 L84.9055814,44.3146414 L73.1707651,37.4961012 Z M36.3354687,19.4789633 L46.1278944,25.1689263 L57.7063183,31.8969538 L47.9482214,37.5672221 L36.3354687,44.3146414 L36.3354687,19.4789633 Z M62.0776284,34.5751598 L71.9602763,40.3175411 L83.448478,46.9931503 L62.0776284,59.4108379 L62.0776284,34.5751598 Z M37.7925721,46.9931503 L49.3706697,40.2651228 L59.1634217,34.5751598 L59.1634217,59.4108379 L37.7925721,46.9931503 Z"/>
      </g>
    </g>
  </g>
</svg>
