
<svg width="32px" height="20px" viewBox="0 0 32 20" version="1.1" xmlns="http://www.w3.org/2000/svg" xmlns:xlink="http://www.w3.org/1999/xlink">
    <g id="Page-1" stroke="none" stroke-width="1" fill="none" fill-rule="evenodd">
        <path d="M9.72727273,6.12021858 L13.0685544,6.12021858 C13.6208391,6.12021858 14.0685544,6.56793383 14.0685544,7.12021858 L14.0685544,18.2349727 C14.0685544,18.7872574 13.6208391,19.2349727 13.0685544,19.2349727 L9.72727273,19.2349727 C9.17498798,19.2349727 8.72727273,18.7872574 8.72727273,18.2349727 L8.72727273,7.12021858 C8.72727273,6.56793383 9.17498798,6.12021858 9.72727273,6.12021858 Z M1,8.7431694 L4.34128167,8.7431694 C4.89356642,8.7431694 5.34128167,9.19088465 5.34128167,9.7431694 L5.34128167,18.2349727 C5.34128167,18.7872574 4.89356642,19.2349727 4.34128167,19.2349727 L1,19.2349727 C0.44771525,19.2349727 4.04416602e-12,18.7872574 4.04432043e-12,18.2349727 L4.04432043e-12,9.7431694 C4.0442528e-12,9.19088465 0.44771525,8.7431694 1,8.7431694 Z M18.4545455,3.49726776 L21.7958271,3.49726776 C22.3481119,3.49726776 22.7958271,3.94498301 22.7958271,4.49726776 L22.7958271,18.2349727 C22.7958271,18.7872574 22.3481119,19.2349727 21.7958271,19.2349727 L18.4545455,19.2349727 C17.9022607,19.2349727 17.4545455,18.7872574 17.4545455,18.2349727 L17.4545455,4.49726776 C17.4545455,3.94498301 17.9022607,3.49726776 18.4545455,3.49726776 Z M27.1818182,1.77635684e-15 L30.5230999,1.77635684e-15 C31.0753846,1.67490378e-15 31.5230999,0.44771525 31.5230999,1 L31.5230999,18.2349727 C31.5230999,18.7872574 31.0753846,19.2349727 30.5230999,19.2349727 L27.1818182,19.2349727 C26.6295334,19.2349727 26.1818182,18.7872574 26.1818182,18.2349727 L26.1818182,1 C26.1818182,0.44771525 26.6295334,1.8778099e-15 27.1818182,1.77635684e-15 Z" id="Mask" fill="#FFFFFF"></path>
    </g>
</svg>