
<svg width="32px" height="25px" viewBox="0 0 32 25" version="1.1" xmlns="http://www.w3.org/2000/svg" xmlns:xlink="http://www.w3.org/1999/xlink">
    <g id="Page-1" stroke="none" stroke-width="1" fill="none" fill-rule="evenodd">
        <path d="M10.02283,11.4423823 L2.69080394,19.8085426 L2.67625915,16.0559881 C2.66462332,12.5506949 2.65444197,8.08835489 2.6457151,5.42375029 L10.02283,11.4423823 Z M15.1687749,11.7929116 L4.01728832,2.69660312 L26.7580595,2.63842398 L15.1687749,11.7929116 Z M12.3325418,13.3288409 L14.2073646,14.8589523 C14.7280679,15.28366 15.5323945,15.2952958 16.072006,14.873497 L18.5489829,12.918678 L22.6898832,17.3213843 C23.2382216,17.9002668 24.2301759,17.9264474 24.7930591,17.3853814 C25.3923042,16.8239527 25.4199393,15.8785417 24.8614196,15.2792965 L20.8979657,11.0642179 L29.2815797,4.44634075 L29.3572126,20.588143 C29.3601215,20.6535946 29.3717574,20.7146827 29.3833932,20.7714073 C29.3353954,20.9139462 29.3092148,21.0521217 29.3092148,21.1975695 C29.3121237,21.5466444 29.2408543,21.8200863 29.1186781,21.9306267 C29.0285004,22.013532 28.8350548,22.0513484 28.7099697,22.0513484 L28.4656173,22.0368036 C28.385621,22.0382581 26.7420603,22.0426215 24.2127222,22.0498939 L20.9096015,22.0586208 C15.1222316,22.0746201 7.64766663,22.0964372 4.6339872,22.1095275 L12.3325418,13.3288409 Z M32,20.5532356 L31.9083679,3.35111844 C31.9112768,3.01804287 31.8603701,1.86755038 31.0167725,0.989045374 C30.6735156,0.623971272 30.0451809,0.161447112 29.0285004,0.0319985268 C28.8466906,0.0116358279 28.6648808,0 28.4597994,0 L3.4776768,0.0596336181 L3.25368711,0.0538157042 C3.14751018,0.0538157042 3.0180616,0.0596336181 2.86097792,0.071269446 C2.35772836,0.119267236 1.62903464,0.290895698 1.00069993,0.849415439 C0.333094302,1.49520389 -0.00289022922,2.3533462 0,3.40493415 L0.0174724697,7.37566043 C0.0291082976,10.1755315 0.0436530825,13.8495442 0.0465620395,16.7090489 C0.0538344319,19.0798488 0.0567433889,20.9052193 0.0567433889,21.196115 C0.0349262115,21.6673661 0.0916508727,22.1182544 0.222553937,22.5371442 C0.360729393,23.0025773 0.583264603,23.4040134 0.88434165,23.7283621 C1.51122188,24.409058 2.37227315,24.7537694 3.44131484,24.7537694 L3.47476784,24.7537694 L3.4776768,24.7537694 C5.63903184,24.7334067 26.7522416,24.6723186 28.3943478,24.6679552 C28.4888889,24.6766821 28.5790666,24.6810455 28.6852435,24.6810455 C29.1681304,24.6810455 30.0960877,24.579232 30.8698702,23.904354 C31.3600295,23.4607381 31.9461843,22.6287764 31.9403664,21.1873882 C31.9403664,21.1175732 31.9345485,21.0535762 31.9170947,20.9939425 C31.9709104,20.8470402 32,20.7030468 32,20.5532356 L32,20.5532356 Z" id="Mask" fill="#FFFFFF"></path>
    </g>
</svg>