
<svg width="40px" height="15px" viewBox="0 0 40 15" version="1.1" xmlns="http://www.w3.org/2000/svg" xmlns:xlink="http://www.w3.org/1999/xlink">
    <g id="Page-1" stroke="none" stroke-width="1" fill="none" fill-rule="evenodd">
        <path d="M33.9576963,8.35037538 C31.5151649,8.33130658 29.5419323,6.4681646 29.5419323,4.17452308 C29.5419323,1.86756923 31.5355815,2.66453526e-15 33.9955446,2.66453526e-15 C36.4562954,2.66453526e-15 38.4483692,1.86756923 38.4483692,4.17452308 C38.4483692,6.4681646 36.4766959,8.33130658 34.0334049,8.35037538 L36.0931692,8.35037538 C37.7914338,8.35037538 39.16832,9.64046769 39.16832,11.2325908 L39.16832,14.2403446 L29,14.2403446 L29,11.2325908 C29,9.64046769 30.3784615,8.35037538 32.0759385,8.35037538 L33.9576963,8.35037538 Z M19.9576963,8.35037538 C17.5151649,8.33130658 15.5419323,6.4681646 15.5419323,4.17452308 C15.5419323,1.86756923 17.5355815,2.66453526e-15 19.9955446,2.66453526e-15 C22.4562954,2.66453526e-15 24.4483692,1.86756923 24.4483692,4.17452308 C24.4483692,6.4681646 22.4766959,8.33130658 20.0334049,8.35037538 L22.0931692,8.35037538 C23.7914338,8.35037538 25.16832,9.64046769 25.16832,11.2325908 L25.16832,14.2403446 L15,14.2403446 L15,11.2325908 C15,9.64046769 16.3784615,8.35037538 18.0759385,8.35037538 L19.9576963,8.35037538 Z M4.95769628,8.35037538 C2.51516488,8.33130658 0.541932308,6.4681646 0.541932308,4.17452308 C0.541932308,1.86756923 2.53558154,2.66453526e-15 4.99554462,2.66453526e-15 C7.45629538,2.66453526e-15 9.44836923,1.86756923 9.44836923,4.17452308 C9.44836923,6.4681646 7.47669591,8.33130658 5.03340489,8.35037538 L7.09316923,8.35037538 C8.79143385,8.35037538 10.16832,9.64046769 10.16832,11.2325908 L10.16832,14.2403446 L4.20374846e-12,14.2403446 L4.20374846e-12,11.2325908 C4.20374846e-12,9.64046769 1.37846154,8.35037538 3.07593846,8.35037538 L4.95769628,8.35037538 Z" id="Mask" fill="#1F7B9E"></path>
    </g>
</svg>