
<svg width="38px" height="32px" viewBox="0 0 38 32" version="1.1" xmlns="http://www.w3.org/2000/svg" xmlns:xlink="http://www.w3.org/1999/xlink">
    <g id="Page-1" stroke="none" stroke-width="1" fill="none" fill-rule="evenodd">
        <path d="M6.02681905,9.6353478 L6.02681905,22.5735218 L3.67558095,22.5735218 C3.30986667,22.5735218 3.0112,22.274076 3.0112,21.9111115 L3.0112,3.65096971 C3.0112,3.28498045 3.30986667,2.9885594 3.67558095,2.9885594 L27.4378667,2.9885594 C27.8066286,2.9885594 28.1052952,3.28498045 28.1052952,3.65096971 L28.1052952,5.98452932 L9.70529524,5.98452932 C7.67558095,5.98452932 6.02681905,7.62391923 6.02681905,9.6353478 L6.02681905,9.6353478 Z M9.70529524,28.5578999 C9.33653333,28.5578999 9.03939048,28.2584541 9.03939048,27.8954896 L9.03939048,25.5604176 L9.03939048,22.5735218 L9.03939048,18.1105701 L9.03939048,9.6353478 C9.03939048,9.26935854 9.33653333,8.97444984 9.70529524,8.97444984 L27.0279619,8.97444984 L28.1052952,8.97444984 L29.1110095,8.97444984 L31.1193905,8.97444984 L31.6740571,8.97444984 L33.4645333,8.97444984 C33.834819,8.97444984 34.1350095,9.26935854 34.1350095,9.6353478 L34.1350095,15.7724735 C34.2157714,15.7724735 34.2919619,15.761887 34.3757714,15.761887 C35.3372952,15.761887 36.2622476,15.9025358 37.1460571,16.1475368 L37.1460571,9.6353478 C37.1460571,7.62391923 35.4942476,5.98452932 33.4645333,5.98452932 L31.1193905,5.98452932 L31.1193905,3.65096971 C31.1193905,1.63802879 29.467581,0.000151235231 27.4378667,0.000151235231 L3.67558095,0.000151235231 C1.64891429,0.000151235231 0.000152380952,1.63802879 0.000152380952,3.65096971 L0.000152380952,21.9111115 C0.000152380952,23.9225401 1.64891429,25.5604176 3.67558095,25.5604176 L6.02681905,25.5604176 L6.02681905,27.8954896 C6.02681905,29.9069182 7.67558095,31.5463081 9.70529524,31.5463081 L25.6976762,31.5463081 C25.1079619,30.6373843 24.6614857,29.63167 24.3841524,28.5578999 L9.70529524,28.5578999 Z" id="Mask" fill="#FFFFFF"></path>
    </g>
</svg>